<svg width="159" height="35" viewBox="0 0 159 35" fill="none" xmlns="http://www.w3.org/2000/svg">
<g clip-path="url(#clip0)">
<path d="M7.41663e-07 30.0838V26.5686C-0.000196339 25.9229 0.126829 25.2836 0.37382 24.687C0.620811 24.0905 0.982927 23.5484 1.43948 23.0919C1.89602 22.6353 2.43806 22.2732 3.0346 22.0262C3.63115 21.7792 4.27052 21.6522 4.91618 21.6524H21.6524V4.91618C21.6522 4.27052 21.7792 3.63115 22.0262 3.0346C22.2732 2.43806 22.6353 1.89602 23.0919 1.43947C23.5484 0.982927 24.0905 0.620811 24.687 0.37382C25.2836 0.126828 25.9229 -0.000196852 26.5686 2.28978e-07H30.0838C30.7295 -0.000196852 31.3689 0.126828 31.9654 0.37382C32.5619 0.620811 33.104 0.982927 33.5605 1.43947C34.0171 1.89602 34.3792 2.43806 34.6262 3.0346C34.8732 3.63115 35.0002 4.27052 35 4.91618V30.085C35.0002 30.7307 34.8732 31.3701 34.6262 31.9666C34.3792 32.5631 34.0171 33.1052 33.5605 33.5617C33.104 34.0183 32.5619 34.3804 31.9654 34.6274C31.3689 34.8744 30.7295 35.0014 30.0838 35.0012H4.91498C4.26932 35.0012 3.62998 34.8741 3.03349 34.6269C2.43701 34.3798 1.89506 34.0175 1.43863 33.5609C0.98219 33.1042 0.620207 32.5621 0.373361 31.9655C0.126516 31.3689 -0.000353951 30.7295 7.41663e-07 30.0838Z" fill="#223256"/>
<path opacity="0.8" d="M35 4.91618V8.43141C35.0002 9.07707 34.8732 9.71644 34.6262 10.313C34.3792 10.9095 34.0171 11.4516 33.5605 11.9081C33.104 12.3647 32.5619 12.7268 31.9654 12.9738C31.3689 13.2208 30.7295 13.3478 30.0838 13.3476H13.3476V30.0838C13.3478 30.7295 13.2208 31.3689 12.9738 31.9654C12.7268 32.5619 12.3647 33.104 11.9081 33.5605C11.4516 34.0171 10.9095 34.3792 10.313 34.6262C9.71644 34.8732 9.07707 35.0002 8.43141 35H4.91618C4.27052 35.0002 3.63115 34.8732 3.0346 34.6262C2.43806 34.3792 1.89602 34.0171 1.43947 33.5605C0.982927 33.104 0.620811 32.5619 0.37382 31.9654C0.126828 31.3689 -0.000196852 30.7295 2.28978e-07 30.0838V4.91498C-3.92051e-05 4.26942 0.127103 3.63018 0.374165 3.03377C0.621226 2.43736 0.983366 1.89547 1.4399 1.43905C1.89643 0.982629 2.43841 0.620621 3.03488 0.373705C3.63135 0.126789 4.27062 -0.000196792 4.91618 2.2891e-07H30.085C30.7306 -3.92052e-05 31.3698 0.127103 31.9662 0.374165C32.5626 0.621226 33.1045 0.983366 33.5609 1.4399C34.0174 1.89643 34.3794 2.43841 34.6263 3.03488C34.8732 3.63135 35.0002 4.27062 35 4.91618Z" fill="#97D8EA"/>
</g>
<path d="M53.5195 31.0009H57.8575V20.2009H66.9655V15.8809H57.8575V9.41886H69.1255V5.08086H53.5195V31.0009Z" fill="#40403D"/>
<path d="M72.7233 8.60886H77.0613V4.63086H72.7233V8.60886ZM72.7233 31.0009H77.0613V11.5609H72.7233V31.0009Z" fill="#40403D"/>
<path d="M80.2931 31.0009H85.4051L89.9231 24.5749L94.4051 31.0009H99.5171L92.3711 21.1729L99.3371 11.5609H94.2251L89.9231 17.7709L85.5491 11.5609H80.4371L87.4031 21.1729L80.2931 31.0009Z" fill="#40403D"/>
<path d="M102.387 31.0009H113.709C116.265 31.0009 118.203 30.2929 119.523 28.8769C120.843 27.4609 121.503 25.6009 121.503 23.2969C121.503 21.9889 121.179 20.8009 120.531 19.7329C119.895 18.6649 118.953 17.8669 117.705 17.3389C118.509 16.8589 119.139 16.1809 119.595 15.3049C120.063 14.4169 120.297 13.3849 120.297 12.2089C120.297 11.0449 120.021 9.91686 119.469 8.82486C118.929 7.73286 118.095 6.83886 116.967 6.14286C115.851 5.43486 114.417 5.08086 112.665 5.08086H102.387V31.0009ZM106.779 15.4309V9.13086H112.611C113.643 9.13086 114.447 9.43086 115.023 10.0309C115.599 10.6309 115.887 11.3809 115.887 12.2809C115.887 13.3129 115.569 14.0989 114.933 14.6389C114.309 15.1669 113.535 15.4309 112.611 15.4309H106.779ZM106.779 26.9149V19.4809H113.295C114.507 19.4809 115.449 19.8349 116.121 20.5429C116.793 21.2509 117.129 22.1269 117.129 23.1709C117.129 24.3229 116.751 25.2349 115.995 25.9069C115.251 26.5789 114.309 26.9149 113.169 26.9149H106.779Z" fill="#40403D"/>
<path d="M133.684 31.5409C135.628 31.5409 137.326 31.1089 138.778 30.2449C140.23 29.3689 141.358 28.1629 142.162 26.6269C142.978 25.0789 143.386 23.2969 143.386 21.2809C143.386 19.2769 142.984 17.5069 142.18 15.9709C141.376 14.4229 140.248 13.2109 138.796 12.3349C137.344 11.4589 135.64 11.0209 133.684 11.0209C131.776 11.0209 130.096 11.4529 128.644 12.3169C127.192 13.1809 126.058 14.3809 125.242 15.9169C124.426 17.4529 124.018 19.2409 124.018 21.2809C124.018 23.2849 124.414 25.0609 125.206 26.6089C126.01 28.1449 127.138 29.3509 128.59 30.2269C130.042 31.1029 131.74 31.5409 133.684 31.5409ZM133.684 27.4729C132.016 27.4729 130.75 26.9149 129.886 25.7989C129.034 24.6709 128.608 23.1649 128.608 21.2809C128.608 19.4449 129.016 17.9569 129.832 16.8169C130.66 15.6649 131.944 15.0889 133.684 15.0889C135.388 15.0889 136.666 15.6529 137.518 16.7809C138.37 17.8969 138.796 19.3969 138.796 21.2809C138.796 23.1049 138.37 24.5929 137.518 25.7449C136.678 26.8969 135.4 27.4729 133.684 27.4729Z" fill="#40403D"/>
<path d="M158.746 31.0009V27.3649C157.534 27.5449 156.454 27.5929 155.506 27.5089C154.558 27.4249 153.868 27.0229 153.436 26.3029C153.208 25.9309 153.082 25.4509 153.058 24.8629C153.046 24.2629 153.04 23.5789 153.04 22.8109V14.9629H158.746V11.5609H153.04V6.16086H148.72V11.5609H145.192V14.9629H148.72V23.0629C148.72 24.1789 148.732 25.1749 148.756 26.0509C148.78 26.9149 149.014 27.7669 149.458 28.6069C149.962 29.5309 150.7 30.2089 151.672 30.6409C152.644 31.0609 153.742 31.2829 154.966 31.3069C156.202 31.3429 157.462 31.2409 158.746 31.0009Z" fill="#40403D"/>
<defs>
<clipPath id="clip0">
<rect width="35" height="35" fill="white"/>
</clipPath>
</defs>
</svg>
