<svg width="309" height="80" viewBox="0 0 309 80" fill="none" xmlns="http://www.w3.org/2000/svg">
<path fill-rule="evenodd" clip-rule="evenodd" d="M40.6004 66.8662C36.7988 66.4954 33.2953 66.437 29.9447 65.7765C15.1136 62.8582 5.23564 54.9789 1.46883 42.0312C-2.41149 28.6954 1.33566 16.872 13.4336 7.86581C25.8116 -1.3503 39.9497 -1.76494 54.6704 3.00059C61.5896 5.24117 68.4891 7.51895 76 9.97746C65.5138 19.2042 53.6806 27.9977 36.366 27.5711C27.6489 27.3558 24.495 25.0834 21.9086 18.6195C15.4753 24.9345 13.9467 31.8224 16.3969 39.5687C18.8183 47.2233 24.8264 51.2818 33.3392 52.8447C36.4174 48.1217 38.2895 42.297 42.6722 39.3587C47.0535 36.4205 53.9455 36.3673 61.6471 34.6145C58.1194 40.7023 55.3044 45.5622 52.1278 51.0427C56.1201 50.842 58.9335 50.6985 63.9549 50.446C54.752 61.205 46.7145 70.6031 38.6754 80C38.0186 79.7807 37.3633 79.5601 36.7064 79.3408C37.9792 75.2624 39.2504 71.1878 40.6004 66.8662Z" fill="#0B661F"/>
<path d="M122.472 36.6V50.64C120.712 51.936 118.832 52.888 116.832 53.496C114.848 54.088 112.72 54.384 110.448 54.384C107.616 54.384 105.048 53.944 102.744 53.064C100.456 52.184 98.496 50.96 96.864 49.392C95.248 47.824 94 45.952 93.12 43.776C92.24 41.6 91.8 39.224 91.8 36.648C91.8 34.04 92.224 31.648 93.072 29.472C93.92 27.296 95.12 25.424 96.672 23.856C98.24 22.288 100.136 21.072 102.36 20.208C104.584 19.344 107.08 18.912 109.848 18.912C111.256 18.912 112.568 19.024 113.784 19.248C115.016 19.472 116.152 19.784 117.192 20.184C118.248 20.568 119.208 21.04 120.072 21.6C120.936 22.16 121.728 22.776 122.448 23.448L120.6 26.376C120.312 26.84 119.936 27.128 119.472 27.24C119.008 27.336 118.504 27.216 117.96 26.88C117.432 26.576 116.904 26.272 116.376 25.968C115.848 25.664 115.256 25.4 114.6 25.176C113.96 24.952 113.232 24.768 112.416 24.624C111.616 24.48 110.688 24.408 109.632 24.408C107.92 24.408 106.368 24.696 104.976 25.272C103.6 25.848 102.424 26.672 101.448 27.744C100.472 28.816 99.72 30.104 99.192 31.608C98.664 33.112 98.4 34.792 98.4 36.648C98.4 38.632 98.68 40.408 99.24 41.976C99.816 43.528 100.616 44.848 101.64 45.936C102.68 47.008 103.928 47.832 105.384 48.408C106.84 48.968 108.464 49.248 110.256 49.248C111.536 49.248 112.68 49.112 113.688 48.84C114.696 48.568 115.68 48.2 116.64 47.736V41.448H112.272C111.856 41.448 111.528 41.336 111.288 41.112C111.064 40.872 110.952 40.584 110.952 40.248V36.6H122.472ZM132.973 33.648C133.741 32.176 134.653 31.024 135.709 30.192C136.765 29.344 138.013 28.92 139.453 28.92C140.589 28.92 141.501 29.168 142.189 29.664L141.805 34.104C141.725 34.392 141.605 34.6 141.445 34.728C141.301 34.84 141.101 34.896 140.845 34.896C140.605 34.896 140.245 34.856 139.765 34.776C139.301 34.696 138.845 34.656 138.397 34.656C137.741 34.656 137.157 34.752 136.645 34.944C136.133 35.136 135.669 35.416 135.253 35.784C134.853 36.136 134.493 36.568 134.173 37.08C133.869 37.592 133.581 38.176 133.309 38.832V54H127.381V29.376H130.861C131.469 29.376 131.893 29.488 132.133 29.712C132.373 29.92 132.533 30.304 132.613 30.864L132.973 33.648ZM160.448 38.856C160.448 38.088 160.336 37.368 160.112 36.696C159.904 36.008 159.584 35.408 159.152 34.896C158.72 34.384 158.168 33.984 157.496 33.696C156.84 33.392 156.072 33.24 155.192 33.24C153.48 33.24 152.128 33.728 151.136 34.704C150.16 35.68 149.536 37.064 149.264 38.856H160.448ZM149.144 42.432C149.24 43.696 149.464 44.792 149.816 45.72C150.168 46.632 150.632 47.392 151.208 48C151.784 48.592 152.464 49.04 153.248 49.344C154.048 49.632 154.928 49.776 155.888 49.776C156.848 49.776 157.672 49.664 158.36 49.44C159.064 49.216 159.672 48.968 160.184 48.696C160.712 48.424 161.168 48.176 161.552 47.952C161.952 47.728 162.336 47.616 162.704 47.616C163.2 47.616 163.568 47.8 163.808 48.168L165.512 50.328C164.856 51.096 164.12 51.744 163.304 52.272C162.488 52.784 161.632 53.2 160.736 53.52C159.856 53.824 158.952 54.04 158.024 54.168C157.112 54.296 156.224 54.36 155.36 54.36C153.648 54.36 152.056 54.08 150.584 53.52C149.112 52.944 147.832 52.104 146.744 51C145.656 49.88 144.8 48.504 144.176 46.872C143.552 45.224 143.24 43.32 143.24 41.16C143.24 39.48 143.512 37.904 144.056 36.432C144.6 34.944 145.376 33.656 146.384 32.568C147.408 31.464 148.648 30.592 150.104 29.952C151.576 29.312 153.232 28.992 155.072 28.992C156.624 28.992 158.056 29.24 159.368 29.736C160.68 30.232 161.808 30.96 162.752 31.92C163.696 32.864 164.432 34.032 164.96 35.424C165.504 36.8 165.776 38.376 165.776 40.152C165.776 41.048 165.68 41.656 165.488 41.976C165.296 42.28 164.928 42.432 164.384 42.432H149.144ZM186.089 38.856C186.089 38.088 185.977 37.368 185.753 36.696C185.545 36.008 185.225 35.408 184.793 34.896C184.361 34.384 183.809 33.984 183.137 33.696C182.481 33.392 181.713 33.24 180.833 33.24C179.121 33.24 177.769 33.728 176.777 34.704C175.801 35.68 175.177 37.064 174.905 38.856H186.089ZM174.785 42.432C174.881 43.696 175.105 44.792 175.457 45.72C175.809 46.632 176.273 47.392 176.849 48C177.425 48.592 178.105 49.04 178.889 49.344C179.689 49.632 180.569 49.776 181.529 49.776C182.489 49.776 183.313 49.664 184.001 49.44C184.705 49.216 185.313 48.968 185.825 48.696C186.353 48.424 186.809 48.176 187.193 47.952C187.593 47.728 187.977 47.616 188.345 47.616C188.841 47.616 189.209 47.8 189.449 48.168L191.153 50.328C190.497 51.096 189.761 51.744 188.945 52.272C188.129 52.784 187.273 53.2 186.377 53.52C185.497 53.824 184.593 54.04 183.665 54.168C182.753 54.296 181.865 54.36 181.001 54.36C179.289 54.36 177.697 54.08 176.225 53.52C174.753 52.944 173.473 52.104 172.385 51C171.297 49.88 170.441 48.504 169.817 46.872C169.193 45.224 168.881 43.32 168.881 41.16C168.881 39.48 169.153 37.904 169.697 36.432C170.241 34.944 171.017 33.656 172.025 32.568C173.049 31.464 174.289 30.592 175.745 29.952C177.217 29.312 178.873 28.992 180.713 28.992C182.265 28.992 183.697 29.24 185.009 29.736C186.321 30.232 187.449 30.96 188.393 31.92C189.337 32.864 190.073 34.032 190.601 35.424C191.145 36.8 191.417 38.376 191.417 40.152C191.417 41.048 191.321 41.656 191.129 41.976C190.937 42.28 190.569 42.432 190.025 42.432H174.785ZM201.41 32.4C201.906 31.904 202.426 31.448 202.97 31.032C203.53 30.6 204.114 30.24 204.722 29.952C205.346 29.648 206.01 29.416 206.714 29.256C207.418 29.08 208.186 28.992 209.018 28.992C210.362 28.992 211.554 29.224 212.594 29.688C213.634 30.136 214.498 30.776 215.186 31.608C215.89 32.424 216.418 33.408 216.77 34.56C217.138 35.696 217.322 36.952 217.322 38.328V54H211.394V38.328C211.394 36.824 211.05 35.664 210.362 34.848C209.674 34.016 208.626 33.6 207.218 33.6C206.194 33.6 205.234 33.832 204.338 34.296C203.442 34.76 202.594 35.392 201.794 36.192V54H195.866V29.376H199.49C200.258 29.376 200.762 29.736 201.002 30.456L201.41 32.4ZM244.597 29.376L234.829 54H229.453L219.685 29.376H224.581C225.029 29.376 225.397 29.48 225.685 29.688C225.989 29.896 226.189 30.16 226.285 30.48L231.037 43.632C231.293 44.4 231.517 45.152 231.709 45.888C231.901 46.624 232.069 47.36 232.213 48.096C232.373 47.36 232.549 46.624 232.741 45.888C232.933 45.152 233.165 44.4 233.437 43.632L238.285 30.48C238.397 30.16 238.597 29.896 238.885 29.688C239.173 29.48 239.517 29.376 239.917 29.376H244.597ZM262.87 38.856C262.87 38.088 262.758 37.368 262.534 36.696C262.326 36.008 262.006 35.408 261.574 34.896C261.142 34.384 260.59 33.984 259.918 33.696C259.262 33.392 258.494 33.24 257.614 33.24C255.902 33.24 254.55 33.728 253.558 34.704C252.582 35.68 251.958 37.064 251.686 38.856H262.87ZM251.566 42.432C251.662 43.696 251.886 44.792 252.238 45.72C252.59 46.632 253.054 47.392 253.63 48C254.206 48.592 254.886 49.04 255.67 49.344C256.47 49.632 257.35 49.776 258.31 49.776C259.27 49.776 260.094 49.664 260.782 49.44C261.486 49.216 262.094 48.968 262.606 48.696C263.134 48.424 263.59 48.176 263.974 47.952C264.374 47.728 264.758 47.616 265.126 47.616C265.622 47.616 265.99 47.8 266.23 48.168L267.934 50.328C267.278 51.096 266.542 51.744 265.726 52.272C264.91 52.784 264.054 53.2 263.158 53.52C262.278 53.824 261.374 54.04 260.446 54.168C259.534 54.296 258.646 54.36 257.782 54.36C256.07 54.36 254.478 54.08 253.006 53.52C251.534 52.944 250.254 52.104 249.166 51C248.078 49.88 247.222 48.504 246.598 46.872C245.974 45.224 245.662 43.32 245.662 41.16C245.662 39.48 245.934 37.904 246.478 36.432C247.022 34.944 247.798 33.656 248.806 32.568C249.83 31.464 251.07 30.592 252.526 29.952C253.998 29.312 255.654 28.992 257.494 28.992C259.046 28.992 260.478 29.24 261.79 29.736C263.102 30.232 264.23 30.96 265.174 31.92C266.118 32.864 266.854 34.032 267.382 35.424C267.926 36.8 268.198 38.376 268.198 40.152C268.198 41.048 268.102 41.656 267.91 41.976C267.718 42.28 267.35 42.432 266.806 42.432H251.566ZM287.671 34.176C287.511 34.432 287.343 34.616 287.167 34.728C286.991 34.824 286.767 34.872 286.495 34.872C286.207 34.872 285.895 34.792 285.559 34.632C285.239 34.472 284.863 34.296 284.431 34.104C283.999 33.896 283.503 33.712 282.943 33.552C282.399 33.392 281.751 33.312 280.999 33.312C279.831 33.312 278.911 33.56 278.239 34.056C277.583 34.552 277.255 35.2 277.255 36C277.255 36.528 277.423 36.976 277.759 37.344C278.111 37.696 278.567 38.008 279.127 38.28C279.703 38.552 280.351 38.8 281.071 39.024C281.791 39.232 282.519 39.464 283.255 39.72C284.007 39.976 284.743 40.272 285.463 40.608C286.183 40.928 286.823 41.344 287.383 41.856C287.959 42.352 288.415 42.952 288.751 43.656C289.103 44.36 289.279 45.208 289.279 46.2C289.279 47.384 289.063 48.48 288.631 49.488C288.215 50.48 287.591 51.344 286.759 52.08C285.927 52.8 284.895 53.368 283.663 53.784C282.447 54.184 281.039 54.384 279.439 54.384C278.591 54.384 277.759 54.304 276.943 54.144C276.143 54 275.367 53.792 274.615 53.52C273.879 53.248 273.191 52.928 272.551 52.56C271.927 52.192 271.375 51.792 270.895 51.36L272.263 49.104C272.439 48.832 272.647 48.624 272.887 48.48C273.127 48.336 273.431 48.264 273.799 48.264C274.167 48.264 274.511 48.368 274.831 48.576C275.167 48.784 275.551 49.008 275.983 49.248C276.415 49.488 276.919 49.712 277.495 49.92C278.087 50.128 278.831 50.232 279.727 50.232C280.431 50.232 281.031 50.152 281.527 49.992C282.039 49.816 282.455 49.592 282.775 49.32C283.111 49.048 283.351 48.736 283.495 48.384C283.655 48.016 283.735 47.64 283.735 47.256C283.735 46.68 283.559 46.208 283.207 45.84C282.871 45.472 282.415 45.152 281.839 44.88C281.279 44.608 280.631 44.368 279.895 44.16C279.175 43.936 278.431 43.696 277.663 43.44C276.911 43.184 276.167 42.888 275.431 42.552C274.711 42.2 274.063 41.76 273.487 41.232C272.927 40.704 272.471 40.056 272.119 39.288C271.783 38.52 271.615 37.592 271.615 36.504C271.615 35.496 271.815 34.536 272.215 33.624C272.615 32.712 273.199 31.92 273.967 31.248C274.751 30.56 275.719 30.016 276.871 29.616C278.039 29.2 279.383 28.992 280.903 28.992C282.599 28.992 284.143 29.272 285.535 29.832C286.927 30.392 288.087 31.128 289.015 32.04L287.671 34.176ZM301.949 54.384C299.805 54.384 298.157 53.784 297.005 52.584C295.869 51.368 295.301 49.696 295.301 47.568V33.816H292.781C292.461 33.816 292.189 33.712 291.965 33.504C291.741 33.296 291.629 32.984 291.629 32.568V30.216L295.589 29.568L296.837 22.848C296.917 22.528 297.069 22.28 297.293 22.104C297.517 21.928 297.805 21.84 298.157 21.84H301.229V29.592H307.805V33.816H301.229V47.16C301.229 47.928 301.413 48.528 301.781 48.96C302.165 49.392 302.685 49.608 303.341 49.608C303.709 49.608 304.013 49.568 304.253 49.488C304.509 49.392 304.725 49.296 304.901 49.2C305.093 49.104 305.261 49.016 305.405 48.936C305.549 48.84 305.693 48.792 305.837 48.792C306.013 48.792 306.157 48.84 306.269 48.936C306.381 49.016 306.501 49.144 306.629 49.32L308.405 52.2C307.541 52.92 306.549 53.464 305.429 53.832C304.309 54.2 303.149 54.384 301.949 54.384Z" fill="#1E130D"/>
</svg>
