<svg width="667" height="667" viewBox="0 0 667 667" fill="none" xmlns="http://www.w3.org/2000/svg">
<path d="M620.256 518.6H50.913C50.913 518.6 4.19373 447.752 27.5286 393.58C50.8652 339.409 135.861 345.192 156.952 302.047C178.044 258.901 71.2261 188.475 96.0489 107.009C120.872 25.5455 221.811 41.4401 286.247 79.4508C350.681 117.464 399.92 134.555 473.292 103.479C544.089 73.4935 626.089 142.409 602.753 222.24C579.419 302.073 552.409 298.543 558.868 339.04C565.327 379.539 669.26 356.228 620.256 518.6Z" fill="#FEEDD7"/>
<path d="M384.329 510.559H277.351V483.774H384.329V510.559Z" fill="#2F415B"/>
<path d="M422.201 518.6H239.479C238.279 518.6 237.307 517.628 237.307 516.428V514.234C237.307 507.762 242.553 502.516 249.025 502.516H412.655C419.128 502.516 424.373 507.762 424.373 514.234V516.428C424.373 517.628 423.401 518.6 422.201 518.6Z" fill="#5A6C92"/>
<path d="M554.291 490.029H107.389C101.126 490.029 96.0488 484.953 96.0488 478.691V211.556C96.0488 205.293 101.126 200.216 107.389 200.216H554.291C560.553 200.216 565.632 205.293 565.632 211.556V478.691C565.632 484.953 560.553 490.029 554.291 490.029Z" fill="#6C71B9"/>
<path d="M107.39 200.216L353.971 206.16L554.291 200.216H107.39Z" fill="#A6AEDF"/>
<path d="M128.611 460.779L369.709 466.76L524.836 460.779H128.611Z" fill="#A6AEDF"/>
<path d="M249.025 502.516L334.981 507.86L408.823 502.516H249.025Z" fill="#A6AEDF"/>
<path d="M121.369 490.029C138.701 489.604 156.035 489.42 173.367 489.109L225.364 488.584C260.029 488.238 294.695 488.189 329.359 488.141C364.024 488.184 398.689 488.235 433.355 488.577L485.352 489.104C502.684 489.417 520.017 489.601 537.349 490.029C520.017 490.459 502.684 490.641 485.352 490.956L433.355 491.483C398.689 491.826 364.024 491.876 329.359 491.919C294.695 491.871 260.029 491.823 225.364 491.476L173.367 490.951C156.035 490.639 138.701 490.456 121.369 490.029Z" fill="#212F40"/>
<path d="M538.847 460.779H122.833C120.981 460.779 119.48 459.277 119.48 457.425V226.136C119.48 224.284 120.981 222.783 122.833 222.783H538.847C540.699 222.783 542.2 224.284 542.2 226.136V457.425C542.2 459.277 540.699 460.779 538.847 460.779Z" fill="#212F3F"/>
<path d="M119.48 236.407V457.425C119.48 459.277 120.981 460.779 122.833 460.779H137.743V236.407H119.48Z" fill="#36495F"/>
<path d="M188.12 274.519H156.952V269.445H188.12V274.519Z" fill="#B9CDE2"/>
<path d="M188.12 372.148H156.952V367.076H188.12V372.148Z" fill="#B9CDE2"/>
<path d="M244.487 285.365H167.789V280.293H244.487V285.365Z" fill="#B9CDE2"/>
<path d="M232.135 296.213H178.96V291.14H232.135V296.213Z" fill="#B9CDE2"/>
<path d="M243.896 307.061H167.199V301.988H243.896V307.061Z" fill="#B9CDE2"/>
<path d="M197.291 317.911H167.199V312.836H197.291V317.911Z" fill="#B9CDE2"/>
<path d="M197.291 361.301H167.199V356.228H197.291V361.301Z" fill="#B9CDE2"/>
<path d="M234.468 328.757H178.96V323.684H234.468V328.757Z" fill="#B9CDE2"/>
<path d="M291.312 339.605H178.96V334.532H291.312V339.605Z" fill="#B9CDE2"/>
<path d="M255.657 350.453H178.96V345.38H255.657V350.453Z" fill="#B9CDE2"/>
<path d="M233.649 382.996H156.952V377.923H233.649V382.996Z" fill="#B9CDE2"/>
<path d="M233.649 426.388H156.952V421.315H233.649V426.388Z" fill="#B9CDE2"/>
<path d="M243.896 393.581H167.199V388.508H243.896V393.581Z" fill="#B9CDE2"/>
<path d="M255.657 404.693H178.96V399.619H255.657V404.693Z" fill="#B9CDE2"/>
<path d="M243.896 415.54H167.199V410.467H243.896V415.54Z" fill="#B9CDE2"/>
<path d="M538.847 222.783H122.833C120.981 222.783 119.48 224.284 119.48 226.136V236.407H542.2V226.136C542.2 224.284 540.699 222.783 538.847 222.783Z" fill="#B7C6DD"/>
<path d="M135.564 229.836C135.564 232.197 133.651 234.111 131.291 234.111C128.931 234.111 127.017 232.197 127.017 229.836C127.017 227.476 128.931 225.563 131.291 225.563C133.651 225.563 135.564 227.476 135.564 229.836Z" fill="#697F9C"/>
<path d="M119.48 229.595C120.21 248.581 120.701 267.567 120.95 286.552C121.251 305.539 121.331 324.525 121.369 343.511L121.27 371.989C121.165 381.481 121.131 390.975 120.955 400.468C120.708 419.455 120.215 438.44 119.48 457.425C118.746 438.44 118.252 419.455 118.005 400.468C117.83 390.975 117.796 381.481 117.691 371.989L117.592 343.511C117.629 324.525 117.71 305.539 118.012 286.552C118.26 267.567 118.75 248.581 119.48 229.595Z" fill="#212F40"/>
<path d="M542.2 229.595C542.929 247.836 543.421 266.077 543.669 284.317C543.971 302.559 544.051 320.8 544.089 339.04L543.989 366.403C543.884 375.523 543.851 384.643 543.675 393.763C543.427 412.004 542.935 430.245 542.2 448.485C541.465 430.245 540.972 412.004 540.725 393.763C540.549 384.643 540.516 375.523 540.411 366.403L540.312 339.04C540.349 320.8 540.429 302.559 540.731 284.317C540.979 266.077 541.471 247.836 542.2 229.595Z" fill="#17232F"/>
<path d="M523.192 448.485H335.169C332.779 448.485 330.84 446.548 330.84 444.156V251.676C330.84 249.285 332.779 247.347 335.169 247.347H523.192C525.583 247.347 527.521 249.285 527.521 251.676V444.156C527.521 446.548 525.583 448.485 523.192 448.485Z" fill="white"/>
<path d="M523.192 247.347H335.169C332.779 247.347 330.84 249.285 330.84 251.676V260.399H527.521V251.676C527.521 249.285 525.583 247.347 523.192 247.347Z" fill="#B7C6DD"/>
<path d="M347.091 253.873C347.091 256.233 345.177 258.147 342.817 258.147C340.457 258.147 338.543 256.233 338.543 253.873C338.543 251.513 340.457 249.6 342.817 249.6C345.177 249.6 347.091 251.513 347.091 253.873Z" fill="#697F9C"/>
<path d="M468.287 427.195H390.075C387.311 427.195 385.069 424.955 385.069 422.19V275.778C385.069 273.012 387.311 270.772 390.075 270.772H468.287C471.051 270.772 473.292 273.012 473.292 275.778V422.19C473.292 424.955 471.051 427.195 468.287 427.195Z" fill="#5A6C92"/>
<path d="M436.314 425.192H422.047C420.883 425.192 419.938 424.248 419.938 423.084V422.792C419.938 421.627 420.883 420.683 422.047 420.683H436.314C437.479 420.683 438.424 421.627 438.424 422.792V423.084C438.424 424.248 437.479 425.192 436.314 425.192Z" fill="#364964"/>
<path d="M465.239 418.693H393.123C391.384 418.693 389.976 417.284 389.976 415.545V282.285C389.976 280.547 391.384 279.139 393.123 279.139H465.239C466.977 279.139 468.385 280.547 468.385 282.285V415.545C468.385 417.284 466.977 418.693 465.239 418.693Z" fill="#E4F1FB"/>
<path d="M465.239 279.139H393.123C391.384 279.139 389.976 280.547 389.976 282.285V307.313H468.385V282.285C468.385 280.547 466.977 279.139 465.239 279.139Z" fill="#30B77F"/>
<path d="M438.143 276.333H420.219C419.556 276.333 419.019 275.796 419.019 275.133C419.019 274.471 419.556 273.932 420.219 273.932H438.143C438.805 273.932 439.343 274.471 439.343 275.133C439.343 275.796 438.805 276.333 438.143 276.333Z" fill="#364964"/>
<path d="M396.284 275.419C396.284 276.241 395.619 276.907 394.797 276.907C393.976 276.907 393.311 276.241 393.311 275.419C393.311 274.599 393.976 273.932 394.797 273.932C395.619 273.932 396.284 274.599 396.284 275.419Z" fill="#364964"/>
<path d="M462.743 340.588H395.337C394.217 340.588 393.311 339.681 393.311 338.563V312.836C393.311 311.716 394.217 310.808 395.337 310.808H462.743C463.863 310.808 464.769 311.716 464.769 312.836V338.563C464.769 339.681 463.863 340.588 462.743 340.588Z" fill="#A1B6CE"/>
<path d="M389.976 406.06V415.545C389.976 417.284 391.384 418.693 393.123 418.693H465.239C466.977 418.693 468.385 417.284 468.385 415.545V406.06H389.976Z" fill="#30B77F"/>
<path d="M452.665 345.036C452.665 346.035 451.856 346.845 450.859 346.845C449.86 346.845 449.049 346.035 449.049 345.036C449.049 344.037 449.86 343.229 450.859 343.229C451.856 343.229 452.665 344.037 452.665 345.036Z" fill="#5A6C92"/>
<path d="M457.963 345.036C457.963 346.035 457.152 346.845 456.155 346.845C455.156 346.845 454.347 346.035 454.347 345.036C454.347 344.037 455.156 343.229 456.155 343.229C457.152 343.229 457.963 344.037 457.963 345.036Z" fill="#5A6C92"/>
<path d="M463.259 345.036C463.259 346.035 462.449 346.845 461.452 346.845C460.453 346.845 459.644 346.035 459.644 345.036C459.644 344.037 460.453 343.229 461.452 343.229C462.449 343.229 463.259 344.037 463.259 345.036Z" fill="#5A6C92"/>
<path d="M459.751 402.373L412.832 405.557C411.361 405.657 409.87 404.19 409.502 402.278L405.521 381.642C405.153 379.731 406.047 378.101 407.518 378.001L454.436 374.817C455.907 374.717 457.398 376.185 457.767 378.096L461.748 398.732C462.116 400.643 461.222 402.272 459.751 402.373Z" fill="#846BBC"/>
<path d="M441.863 362.051L341.371 341.099C338.22 340.441 336.199 337.356 336.856 334.204L343.952 300.171C344.608 297.02 347.696 294.997 350.847 295.655L451.337 316.607C454.488 317.263 456.51 320.351 455.854 323.501L448.757 357.535C448.1 360.685 445.013 362.707 441.863 362.051Z" fill="#846BBC"/>
<path d="M440.908 331.805L371.746 316.911L373.598 308.309L442.759 323.205L440.908 331.805Z" fill="#C9AFDD"/>
<path d="M424.301 335.432L370.263 323.795L370.961 320.548L425 332.187L424.301 335.432Z" fill="#C9AFDD"/>
<path d="M431.011 343.087L368.984 329.731L369.684 326.484L431.709 339.843L431.011 343.087Z" fill="#C9AFDD"/>
<path d="M365.311 311.116C365.311 315.453 361.794 318.971 357.456 318.971C353.118 318.971 349.602 315.453 349.602 311.116C349.602 306.779 353.118 303.261 357.456 303.261C361.794 303.261 365.311 306.779 365.311 311.116Z" fill="#D8C4E6"/>
<path d="M591.863 502.051L491.371 481.099C488.22 480.441 486.199 477.356 486.856 474.204L493.952 440.171C494.608 437.02 497.696 434.997 500.847 435.655L601.337 456.607C604.488 457.263 606.51 460.351 605.854 463.501L598.757 497.535C598.1 500.685 595.013 502.707 591.863 502.051Z" fill="#846BBC"/>
<path d="M590.908 471.805L521.746 456.911L523.598 448.309L592.759 463.205L590.908 471.805Z" fill="#C9AFDD"/>
<path d="M574.301 475.432L520.263 463.795L520.961 460.548L575 472.187L574.301 475.432Z" fill="#C9AFDD"/>
<path d="M581.011 483.087L518.984 469.731L519.684 466.484L581.709 479.843L581.011 483.087Z" fill="#C9AFDD"/>
<path d="M515.311 451.116C515.311 455.453 511.794 458.971 507.456 458.971C503.118 458.971 499.602 455.453 499.602 451.116C499.602 446.779 503.118 443.261 507.456 443.261C511.794 443.261 515.311 446.779 515.311 451.116Z" fill="#D8C4E6"/>
<path d="M386.617 303.331C386.617 303.331 388.804 308.835 388.969 312.319C389.136 315.804 384.836 330.404 395.448 332.063C406.059 333.721 417.175 317.628 418.004 312.484C418.833 307.341 408.532 288.336 408.532 288.336L389.039 285.313L379.376 301.603L386.617 303.331Z" fill="#A5542D"/>
<path d="M416.787 303.185L416.822 303.257L416.84 303.289L416.787 303.185Z" fill="#B15552"/>
<path d="M416.822 303.257C415.05 300.219 413.352 297.145 411.51 294.137C412.547 297.521 413.73 300.84 414.838 304.193L414.891 304.297C415.102 304.905 415.468 305.601 415.69 306.295C415.927 306.993 416.088 307.719 416.22 308.445C416.459 309.904 416.472 311.391 416.242 312.839C415.826 315.757 414.176 318.333 412.314 320.848C411.312 322.189 410.218 323.465 409.046 324.652C410.292 321.897 411.586 318.257 411.563 315.012C412.035 314.397 413.171 312.797 413.191 311.644C413.207 310.619 412.047 309.025 411.268 308.075C410.964 307.701 410.632 307.361 410.268 307.043L409.035 305.963C410.059 307.115 411.867 311.091 411.858 311.621C411.847 312.252 410.982 313.608 410.372 314.369L410.219 314.56L410.226 314.805C410.346 319.199 407.646 324.692 406.343 327.073C406.19 327.195 406.044 327.329 405.888 327.448C404.678 328.372 403.387 329.184 402.023 329.78C400.674 330.419 399.239 330.805 397.806 330.923L397.762 330.924C399.563 328.979 401.868 325.648 403.051 321.865C404.503 317.22 404.662 315.115 404.636 314.295C405.156 313.792 406.235 312.573 406.235 311.116C406.235 310.772 406.192 310.408 406.123 310.04C405.8 308.32 404.847 306.781 403.55 305.604L403.31 305.385C403.319 305.407 404.902 309.7 404.902 311.116C404.902 312.147 403.906 313.191 403.522 313.507L403.22 313.776L403.291 314.161C403.303 314.225 403.555 315.784 401.778 321.468C400.326 326.115 397.294 329.617 395.91 330.907C395.114 330.815 394.335 330.637 393.619 330.391C393.179 330.223 392.786 329.979 392.415 329.705C394.235 327.453 399.026 320.841 398.868 313.823C399.455 313.236 400.848 311.597 400.387 309.663C399.847 307.395 398.284 306.573 398.196 306.524L395.995 305.577C396.012 305.585 398.69 308.288 399.091 309.972C399.466 311.549 397.776 313.023 397.759 313.037L397.512 313.251L397.526 313.573C397.807 320.084 393.22 326.535 391.434 328.788C391.17 328.472 390.924 328.135 390.716 327.757C389.384 325.279 389.194 322.089 389.315 319.036C389.384 317.491 389.55 315.941 389.767 314.383L389.934 313.203C389.979 312.781 390.076 312.457 390.091 311.859C390.075 310.76 389.767 310.073 389.514 309.268C388.443 306.188 387.194 303.249 385.836 300.331C386.414 303.484 387.059 306.639 387.523 309.747L387.78 311.857C387.804 312.055 387.742 312.519 387.688 312.887L387.52 314.073C387.299 315.672 387.124 317.296 387.05 318.935C386.946 322.189 387.044 325.645 388.732 328.859C389.583 330.436 391.034 331.837 392.78 332.497C394.495 333.099 396.239 333.369 397.992 333.184C399.73 333.039 401.422 332.571 402.952 331.848C404.51 331.164 405.935 330.264 407.256 329.256C409.912 327.251 412.168 324.825 414.132 322.204C415.108 320.872 416.03 319.571 416.826 318.052C417.628 316.547 418.227 314.904 418.48 313.199C418.987 309.799 418.491 306.36 416.822 303.257Z" fill="#994923"/>
<path d="M386.476 289.637L379.376 301.603L381.235 302.047L386.476 289.637Z" fill="#66100D"/>
<path d="M420.907 200.216C420.907 200.216 418.527 182.241 402.675 157.481C380.896 123.467 344.545 99.4828 300.92 116.072C257.293 132.661 251.06 200.216 251.06 200.216H283.179L286.776 187.532L291.845 200.216H375.8L372.084 176.511L384.332 200.216H420.907Z" fill="black"/>
<path d="M258.481 200.216C262.004 161.741 280.64 129.62 280.837 129.28C255.259 154.777 251.06 200.216 251.06 200.216H258.481Z" fill="#A1DA6C"/>
<path d="M380.361 191.436C380.361 191.436 389.495 212.725 390.244 216.097C390.993 219.469 383.736 285.365 383.736 285.365C383.736 285.365 395.113 294.255 412.721 291.14C412.721 291.14 423.211 228.46 423.587 216.472C423.96 204.484 416.136 183.727 416.136 183.727L380.361 191.436Z" fill="#7ACD69"/>
<path d="M366.224 172.124C365.792 171.213 364.445 159.007 364.445 159.007C364.445 159.007 361.844 171.083 362.703 172.904C363.564 174.725 366.787 178.237 366.787 178.237C366.787 178.237 360.672 191.896 357.005 194.628C354.724 196.327 344.225 198.68 336.613 200.216H375.8L372.084 176.511C372.084 176.511 366.656 173.033 366.224 172.124Z" fill="#64B854"/>
<path d="M420.203 196.32C419.005 192.129 418.16 188.992 416.136 183.727C408.932 164.108 391.437 137.784 372.731 125.291C373.456 126.488 400.157 153.828 410.9 183.699C414.111 192.629 418.052 208.508 417.011 223.469L407.023 281.237L396.355 279.483L406.793 285.315L407.371 291.725C408.096 291.685 410.703 291.42 411.428 291.32L415.305 274.389C418.112 244.555 429.18 225.137 420.203 196.32Z" fill="#A1DA6C"/>
<path d="M411.421 289.339C411.364 289.703 411.372 289.625 411.353 289.671L411.288 289.744L411.221 289.772L410.577 289.835C406.499 290.267 402.363 290.233 398.388 289.373C394.417 288.572 390.583 287.009 387.301 284.729C386.556 284.221 385.416 283.307 385.672 283.439L385.667 283.36L385.767 282.573L385.968 280.987L386.476 276.837C390.137 278.928 398.197 282.631 409.424 282.631C410.428 282.631 411.469 282.588 412.524 282.525L411.931 286.187L411.421 289.339ZM423.761 214.812C423.555 212.331 423.28 209.852 422.769 207.417C422.307 204.975 421.631 202.583 420.907 200.216C421.479 202.627 422 205.045 422.305 207.496C422.667 209.936 422.843 212.397 422.924 214.855C423.003 217.312 422.9 219.772 422.679 222.212C422.445 224.639 422.079 227.103 421.471 229.395L421.46 229.431L421.452 229.477L417.161 254.672C415.757 263.057 414.291 271.435 412.96 279.832C399.321 280.796 389.755 275.76 386.824 273.956C388.764 257.243 390.721 240.56 391.691 223.679C391.781 221.512 391.877 219.42 391.711 217.095C391.655 215.869 391.28 214.733 390.916 213.688C390.537 212.653 390.147 211.632 389.719 210.648C388.043 206.675 386.201 202.827 384.339 198.983C381.985 194.169 378.005 186.471 375.367 181.401C373.592 177.993 372.257 174.38 371.389 170.637L371.331 170.381C370.76 168.831 370.672 167.164 370.291 164.947C369.945 162.913 369.879 160.779 369.828 158.704L369.308 151.131L368.204 158.276C368.109 160.359 368.191 162.464 368.443 164.545C368.692 166.629 369.108 168.697 369.689 170.723L371.044 175.305L366.224 172.124L372.348 178.592C375.715 185.688 379.127 192.765 382.352 199.915C384.092 203.788 385.817 207.679 387.341 211.6C387.735 212.581 388.076 213.56 388.401 214.536C388.708 215.505 388.979 216.42 388.977 217.337C389.064 219.263 388.905 221.435 388.795 223.52C388.221 231.957 387.277 240.425 386.344 248.876C385.419 257.333 384.419 265.787 383.381 274.235L382.609 280.572L382.417 282.155L382.32 282.953C382.26 283.451 382.307 283.969 382.46 284.452C382.615 284.935 382.869 285.384 383.204 285.753C383.607 286.183 383.784 286.267 384.013 286.469C384.465 286.823 384.92 287.167 385.389 287.483C389.121 290.045 393.359 291.729 397.728 292.596C402.096 293.527 406.596 293.527 410.963 292.979L411.372 292.932C411.517 292.913 411.603 292.916 411.904 292.853C412.403 292.739 412.872 292.511 413.26 292.192C413.651 291.876 413.965 291.473 414.179 291.023C414.404 290.589 414.485 289.975 414.504 289.815L414.968 286.653L415.895 280.333C417.159 271.909 418.284 263.464 419.476 255.029L422.975 229.712L422.957 229.795C423.501 227.271 423.74 224.804 423.865 222.296C423.973 219.797 423.959 217.297 423.761 214.812Z" fill="#0F7456"/>
<path d="M317.897 200.216C317.897 200.216 306.875 198.253 306.409 197.943C305.944 197.632 300.2 189.405 298.492 188.368C296.784 187.332 277.845 176.52 277.845 176.52L284.999 185.34L272.563 182.484L278.747 189.22L275.755 200.216H283.179L286.985 188.056L291.845 200.216H317.897Z" fill="#64B854"/>
<path d="M291.845 200.216L286.985 188.056L277.845 176.52L288.079 186.532C288.587 187.029 288.996 187.617 289.287 188.267L294.647 200.216H291.845Z" fill="#0F7456"/>
<path d="M288.004 106.1C287.072 116.525 287.708 127.7 292.869 142.489C294.868 148.217 298.521 155.611 304.451 164.112C317.193 182.38 330.116 184.872 337.195 183.353C345.343 181.605 363.507 166.424 357.005 120.695C357.005 120.695 351.912 70.9895 313.627 79.6028C293.029 84.2361 289.163 93.1375 288.004 106.1Z" fill="#A5542D"/>
<path d="M358.552 134.299C358.552 134.299 359.464 118.629 364.501 116.327C369.539 114.023 369.396 127.841 365.797 138.06C362.199 148.28 357.005 144.107 357.005 144.107L358.552 134.299Z" fill="#A5542D"/>
<path d="M358.552 134.299C358.552 134.299 359.464 118.629 364.501 116.327C369.539 114.023 369.396 127.841 365.797 138.06C362.199 148.28 357.005 144.107 357.005 144.107L358.552 134.299Z" fill="#A5542D"/>
<path d="M364.571 114.844C364.541 114.837 364.519 114.831 364.491 114.824C365.3 110.98 365.892 106.881 366.12 102.617C366.081 103.541 365.801 109.288 364.571 114.844Z" fill="#A58081"/>
<path d="M364.112 116.535C364.243 115.971 364.369 115.4 364.491 114.824C364.519 114.831 364.541 114.837 364.571 114.844C364.448 115.4 364.315 115.952 364.172 116.499C364.152 116.511 364.132 116.523 364.112 116.535Z" fill="#A67A72"/>
<path d="M358.335 135.676C358.329 135.499 358.324 135.32 358.317 135.141L358.533 133.315C358.572 133.225 358.611 133.136 358.651 133.045C358.581 133.812 358.553 134.276 358.552 134.297C358.552 134.299 358.552 134.299 358.552 134.299L358.335 135.676Z" fill="#6A6F40"/>
<path d="M358.533 133.315L361.546 107.823L357.004 106.025C357.008 104.469 356.974 102.905 356.923 101.473C357.831 99.4401 358.383 96.7135 358.383 96.7135C358.383 96.7135 360.56 102.947 364.332 102.945C364.895 102.945 365.493 102.807 366.125 102.488C366.125 102.488 366.124 102.532 366.12 102.617C365.892 106.881 365.3 110.98 364.491 114.824C364.369 115.4 364.243 115.971 364.112 116.535C360.25 118.927 358.98 129.404 358.651 133.045C358.611 133.136 358.572 133.225 358.533 133.315Z" fill="#B8B8B8"/>
<path d="M357.991 137.855L354.077 115.977L358.013 137.715L357.991 137.855ZM358.015 137.704L358.317 135.141C358.324 135.32 358.329 135.499 358.335 135.676L358.015 137.704ZM346.028 102.672C344.3 99.0841 342.976 96.0561 342.744 95.5187L342.737 95.4081C343.404 96.9508 344.607 99.6828 346.028 102.672Z" fill="#A56A69"/>
<path d="M358.552 134.299C358.552 134.299 358.552 134.299 358.552 134.297C358.552 134.299 358.552 134.299 358.552 134.299ZM358.552 134.297C358.56 134.171 359.444 119.304 364.172 116.499C364.172 116.503 364.171 116.507 364.169 116.509C359.447 119.324 358.56 134.171 358.552 134.297Z" fill="#A56A69"/>
<path d="M358.013 137.715L354.077 115.977C351.963 114.392 348.56 107.931 346.028 102.672C344.607 99.6828 343.404 96.9508 342.737 95.4081L342.703 94.6921C342.703 94.6921 352.953 103.641 354.968 103.64C354.969 103.64 354.969 103.64 354.971 103.64C355.719 103.639 356.384 102.677 356.923 101.473C356.973 102.905 357.008 104.469 357.004 106.025L361.545 107.823L358.533 133.315L358.317 135.141L358.015 137.704L358.013 137.715Z" fill="#49495D"/>
<path d="M287.228 130.8C285.056 126.828 282.492 121.663 281 117C282.889 122.112 285.036 126.725 287.228 130.8Z" fill="#A67A72"/>
<path d="M294 146C293.291 144.296 291.269 139.716 288.756 136.491C287.384 134.727 285.867 133.367 284.342 133.101C284.239 132.928 282.837 130.555 281.147 127.244C279.34 123.642 277.571 119.564 276.013 115.045C276.009 115.029 276.004 115.014 276 115C276 115 279.012 119.698 281.288 120.789L293.392 144.412C293.582 144.929 293.785 145.458 294 146" fill="#49495E"/>
<path d="M294.727 147.177C294.725 147.173 294.611 146.895 294.397 146.417C294.136 145.804 293.891 145.205 293.66 144.621L294.578 146.288L294.727 147.177Z" fill="#A56A69"/>
<path d="M294.578 146.288L293.66 144.621L278.978 117.899C279.339 118.06 279.686 118.152 280.007 118.152C280.198 118.152 280.379 118.119 280.55 118.051C283.195 116.977 283.854 116.273 283.854 116.273C283.854 116.273 285.395 117.163 287.271 117.163C288.006 117.163 288.794 117.025 289.559 116.645L294.578 146.288Z" fill="#937474"/>
<path d="M294.727 147.177C294.727 147.177 287.623 130.068 281.016 131.912C273.017 134.144 287.712 161.304 300.92 157.025L294.727 147.177Z" fill="#A5542D"/>
<path d="M306.832 136.919C306.832 136.919 311.52 134.397 315.401 136.919C315.401 136.919 311.197 129.16 306.832 136.919Z" fill="#A5542D"/>
<path d="M344.263 127.501C344.263 127.501 338.941 127.671 336.849 131.8C336.849 131.8 336.593 122.979 344.263 127.501Z" fill="#A5542D"/>
<path d="M331.351 160.587C328.021 160.587 323.252 151.788 323.252 151.788L323.013 146.457L318.979 132.175C318.895 131.875 319.135 131.637 319.389 131.637C319.495 131.637 319.603 131.677 319.691 131.772L325.387 137.855L332.264 160.328C331.976 160.505 331.671 160.587 331.351 160.587Z" fill="#9E3B0B"/>
<path d="M323.252 151.788C323.252 151.788 328.836 162.956 332.299 161.839C335.76 160.723 335.983 148.987 335.983 148.987C335.983 148.987 333.304 158.489 331.292 158.712C329.283 158.936 323.252 151.788 323.252 151.788Z" fill="#FAB44E" fill-opacity="0.16"/>
<path d="M328.427 168.653C330.076 168.617 331.609 168.371 333.032 167.893C334.455 167.425 335.728 166.724 336.899 165.865C338.031 164.945 339.036 163.879 339.965 162.683C340.42 162.083 340.819 161.427 341.283 160.803C341.665 160.131 342.069 159.457 342.507 158.783L342.739 158.427L342.965 158.465C343.733 158.592 344.501 158.747 345.269 158.953C344.501 159.16 343.733 159.313 342.965 159.441L343.424 159.124C343.228 159.923 343.007 160.728 342.751 161.527C342.403 162.285 342.107 163.084 341.657 163.808C341.201 164.528 340.761 165.271 340.141 165.887C339.84 166.199 339.591 166.559 339.241 166.829L338.217 167.652C336.785 168.669 335.085 169.331 333.364 169.509C331.649 169.691 329.896 169.447 328.427 168.653Z" fill="#4B0708"/>
<path d="M364.619 125.28C364.619 125.28 360.741 130.655 360.872 132.784C361.004 134.915 362.744 137.855 362.744 137.855C362.744 137.855 363.448 129.861 364.619 125.28Z" fill="#A5542D"/>
<path d="M285.736 142.316C285.736 142.316 291.856 144.859 292.863 146.74C293.868 148.621 293.929 152.037 293.929 152.037C293.929 152.037 289.136 145.601 285.736 142.316Z" fill="#A5542D"/>
<path d="M297.781 131.223L312.445 125.877C313.359 125.544 313.613 124.361 312.899 123.703C311.112 122.056 307.549 119.82 302.168 121.092C296.297 122.48 295.839 127.46 296.031 130.101C296.093 130.964 296.968 131.52 297.781 131.223Z" fill="#632526"/>
<path d="M332.896 120.065L349.525 119.267C350.429 119.223 351.036 118.296 350.681 117.464C349.853 115.52 347.664 112.56 341.963 112.031C336.011 111.477 332.976 115.564 331.667 118.148C331.208 119.053 331.883 120.113 332.896 120.065Z" fill="#632526"/>
<path d="M314.597 150.329H308.097C308.097 150.329 311.457 147.177 314.597 150.329Z" fill="#6C0C09"/>
<path d="M343.779 144.057L350.009 141.065C350.009 141.065 345.152 138.991 343.779 144.057Z" fill="#5AB152"/>
<path d="M309.689 145.236C310.696 148.611 312.972 150.909 314.775 150.371C316.577 149.833 317.224 146.663 316.217 143.289C315.211 139.916 312.935 137.617 311.132 138.155C309.329 138.693 308.683 141.863 309.689 145.236Z" fill="#352122"/>
<path d="M339.273 138.615C339.973 141.991 341.989 144.428 343.779 144.057C345.569 143.688 346.455 140.651 345.756 137.275C345.057 133.899 343.04 131.461 341.251 131.832C339.461 132.201 338.576 135.239 339.273 138.615Z" fill="#352122"/>
<path d="M282.317 94.5922C281.407 94.5922 280.836 94.1988 280.815 93.2268C280.725 88.9722 288.091 80.7562 290.56 78.1242C286.745 82.7188 284.303 88.2722 283.684 94.3842C283.176 94.5175 282.715 94.5922 282.317 94.5922Z" fill="#6F2D2D"/>
<path d="M283.684 94.3842C284.303 88.2722 286.745 82.7188 290.56 78.1242C291.057 77.5948 291.356 77.2908 291.356 77.2908C291.356 77.2908 285.329 87.0495 284.691 90.5042C284.591 91.0468 284.96 91.2642 285.623 91.2642C288.393 91.2642 296.283 87.4415 296.283 87.4415C296.283 87.4415 288.156 93.2068 283.684 94.3842Z" fill="#6F2D2D"/>
<path d="M308.015 89.5974C307.794 89.5974 307.598 89.5427 307.43 89.4281C304.59 87.4774 308.747 76.9601 308.747 76.9601C308.747 76.9601 307.687 84.5907 309.043 85.6601C309.106 85.7094 309.191 85.7334 309.294 85.7334C311.392 85.7334 321.259 75.8521 321.259 75.8521C321.259 75.8521 311.531 89.5974 308.015 89.5974Z" fill="#6F2D2D"/>
<path d="M310.213 143.151C310.469 144.388 311.184 145.287 311.811 145.157C312.437 145.028 312.737 143.919 312.481 142.681C312.225 141.444 311.509 140.545 310.884 140.675C310.257 140.804 309.957 141.913 310.213 143.151Z" fill="white"/>
<path d="M339.98 136.647C340.16 137.897 340.819 138.837 341.452 138.747C342.087 138.656 342.453 137.568 342.273 136.317C342.093 135.067 341.433 134.125 340.801 134.217C340.168 134.308 339.801 135.396 339.98 136.647Z" fill="white"/>
<path d="M300.135 157.481H298.067C298.715 157.477 299.362 157.411 300.008 157.271C300.05 157.341 300.092 157.411 300.135 157.481Z" fill="#B19265"/>
<path d="M300.136 157.481H300.135C300.092 157.411 300.049 157.341 300.008 157.271C300.011 157.269 300.016 157.269 300.02 157.268L300.136 157.481Z" fill="#E08D87"/>
<path d="M298.067 157.481L295.998 149.911L300.02 157.268C300.016 157.269 300.011 157.269 300.008 157.271C299.362 157.411 298.715 157.477 298.067 157.481Z" fill="#2C0907"/>
<path d="M359.557 145.075C359.211 145.075 358.756 145 358.231 144.735C358.604 144.857 359.047 144.949 359.537 144.949C359.765 144.949 360.004 144.931 360.249 144.884L360.271 144.949C360.271 144.949 360.005 145.075 359.557 145.075Z" fill="#B19265"/>
<path d="M359.537 144.949C359.047 144.949 358.604 144.857 358.231 144.735C358.225 144.732 358.221 144.729 358.216 144.727V138.671L360.249 144.884C360.004 144.931 359.765 144.949 359.537 144.949Z" fill="#A5542D"/>
<path d="M333.928 180.165C321.052 181.596 302.069 160.129 301.088 159.007C302.123 160.663 303.227 162.357 304.451 164.112C317.193 182.38 330.117 184.872 337.195 183.353C341.616 182.404 348.98 177.485 353.759 165.891C353.569 166.252 346.959 178.717 333.928 180.165Z" fill="#A5542D"/>
<path d="M288.062 135.697C285.891 133.085 283.422 131.241 281.016 131.912C277.274 132.957 278.5 139.459 282.218 145.644L283.168 147.131L283.194 147.167C283.146 147.057 278.975 137.705 281.307 135.195C283.654 132.669 288.062 135.697 288.062 135.697Z" fill="#A5542D"/>
<path d="M364.501 116.327C363.119 116.959 362.048 118.6 361.221 120.645C361.572 120.329 364.395 117.848 366.125 118.427C367.291 118.816 367.891 123.775 368.176 127.388C368.915 120.429 367.863 114.789 364.501 116.327Z" fill="#A5542D"/>
<path d="M235.319 196.763C235.319 196.763 247.001 187.928 263.361 190.64C266.065 191.088 267.991 193.227 268.065 195.727C268.253 202.005 269.26 210.277 267.485 213.893C265.02 218.915 251.493 223.711 246.889 222.135C242.285 220.559 231.701 198.941 235.319 196.763Z" fill="#A5542D"/>
<path d="M267.96 194.852C267.767 197.929 267.749 202.705 267.292 205.703C267.235 207.208 267.085 208.704 266.849 210.165C266.592 211.611 266.264 213.067 265.593 214.213C265.372 214.589 265.113 214.944 264.84 215.289C264.7 214.229 264.543 213.179 264.372 212.121C264.047 210.149 263.665 208.191 263.232 206.245C262.368 202.359 261.256 198.527 259.816 194.852C260.652 198.711 261.131 202.608 261.361 206.511C261.477 208.461 261.54 210.412 261.547 212.36C261.551 214.297 261.509 216.275 261.388 218.148L261.628 218.145C260.869 218.648 260.071 219.103 259.256 219.507C259.037 219.415 258.951 219.379 258.731 219.285L251.748 198.563C251.685 198.375 251.403 198.447 251.439 198.643L255.487 221.047C255.115 221.279 254.641 221.417 254.165 221.528L253.205 221.687C251.907 220.157 251.063 218.835 249.896 216.408C248.956 214.455 248.137 212.397 247.167 210.439C246.197 208.48 245.28 206.481 244.503 204.423C243.689 202.375 243.029 200.267 242.407 198.139C242.721 200.329 243.077 202.531 243.599 204.7C244.084 206.881 244.72 209.029 245.423 211.164C246.124 213.3 246.961 215.393 247.884 217.464C248.472 218.759 249.076 220.015 249.757 221.275C249.897 221.533 249.699 221.836 249.405 221.816C248.412 221.748 247.499 221.521 246.705 221.02C245.601 220.305 244.649 219.201 243.804 217.995C242.125 215.557 240.668 212.845 239.297 210.161C237.963 207.455 236.776 204.672 236.069 201.807C235.824 201.107 235.613 200.395 235.431 199.664L235.177 198.591C235.117 198.32 235.147 198.031 235.247 197.733C235.456 197.136 235.961 196.575 236.527 196.104C237.095 195.621 237.739 195.199 238.425 194.852C236.959 195.252 235.376 195.773 234.361 197.303C234.131 197.693 233.971 198.173 233.973 198.668L234.017 199.873C234.057 200.649 234.132 201.436 234.244 202.216L234.253 202.267C234.984 205.356 236.247 208.225 237.605 211.003C239.02 213.769 240.465 216.472 242.26 219.084C243.172 220.372 244.229 221.664 245.707 222.624C246.456 223.084 247.305 223.409 248.157 223.573C249.015 223.744 249.844 223.744 250.652 223.732C253.908 223.62 256.988 222.664 259.856 221.317C261.58 220.469 263.291 219.451 264.764 218.12L265.168 218.116L265.128 217.772C265.921 217.004 266.641 216.144 267.235 215.151C268.103 213.632 268.428 212.031 268.713 210.477C268.972 208.923 269.099 207.372 269.203 205.828V205.78C269.049 202.659 268.541 197.88 267.96 194.852Z" fill="#8B4A2A"/>
<path fill-rule="evenodd" clip-rule="evenodd" d="M283.471 69.7656C282.794 68.1117 282.898 66.3176 283.052 64.6435C283.212 62.9046 283.397 61.16 283.787 59.4687C284.568 56.0894 286.365 52.6793 290.093 51.709C293.083 50.9311 296.541 51.7038 299.424 53.0006C301.345 53.8645 303.136 55.0938 304.656 56.5295C306.163 57.9538 307.17 59.7344 308.562 61.246C310.318 58.0889 312.736 55.0933 316.103 53.3869C319.343 51.7453 323.074 51.837 326.641 53.228C330.302 54.6558 333.349 57.1397 335.692 60.1813C336.279 60.9429 336.85 61.7175 337.361 62.5232C337.79 63.1979 338.205 63.9569 338.85 64.4806C339.569 65.0645 340.174 64.885 340.956 64.6683C341.874 64.4142 342.833 64.2702 343.802 64.2051C348.084 63.9179 352.75 65.3389 355.853 68.5142C357.283 69.9772 358.461 71.7999 358.946 73.7083C359.378 75.4094 359.155 77.6264 360.167 79.1885C360.597 79.8515 361.266 79.6292 361.998 79.5903C363.097 79.5318 364.184 79.401 365.286 79.3615C366.834 79.3057 368.388 79.4743 369.905 79.9347C372.124 80.6087 374.857 82.1735 374.257 84.6968C374.031 85.6446 373.394 86.4481 372.879 87.2508C372.173 88.353 371.462 89.4526 370.733 90.5408C370.18 91.3671 369.619 92.1508 368.968 92.9054C368.621 93.3076 367.842 93.9873 367.833 94.569C367.821 95.296 369.337 95.6825 369.901 96.0066C371.015 96.6469 372.065 97.4178 372.898 98.3814C373.543 99.1283 374.152 100.046 374.079 101.012C374.035 101.606 373.717 102.071 373.355 102.514C372.92 103.046 372.89 103.434 372.661 104.081C374.519 104.257 380.542 105.65 379.989 108.3C379.805 109.183 378.843 109.781 378.117 110.223C376.843 110.998 375.412 111.565 373.986 112.073C371.011 113.133 367.821 113.717 364.596 113.954C366.87 116.517 365.952 120.039 362.509 120.604C360.989 120.853 359.434 120.264 358.095 119.487C357.605 119.203 356.969 118.659 356.536 118.524C356.303 118.451 355.996 118.482 355.694 118.343C353.705 117.432 351.734 115.887 350.039 114.527C347.017 112.104 344.545 109.078 343.028 105.66C342.639 104.783 342.248 104.19 341.347 103.722C340.557 103.313 339.689 103.086 338.895 102.686C336.793 101.63 340.523 92.1325 338.895 90.5408C337.614 92.673 335.411 90.8182 333.298 92.2278C333.298 92.2278 311.529 96.1658 309.669 95.3616C303.723 92.7905 311.397 97.2639 305.679 94.2436C300.853 90.1008 310.653 98.2264 305.679 94.2436C307.255 93.8302 307.861 96.1162 305.679 94.2436C305.679 94.2436 292.927 96.5725 289.039 102.26C286.29 106.281 291.042 104.007 292.007 109.425C292.567 112.57 295.251 115.092 297.356 117.431C294.374 118.135 292.486 120.508 290.085 122.077C288.9 122.851 287.396 123.638 285.841 123.303C285.266 123.179 284.673 122.88 284.096 123.014C278.771 123.014 283.013 123.594 282.195 123.628C278.93 123.767 275.097 121.592 273.896 118.519C272.81 115.739 274.773 113.29 277.366 112.429C275.204 110.09 271 106.329 273.9 103.405C268.316 100.035 258.505 84.7767 269.27 83.1269C266.099 78.8649 264.816 71.8736 269.84 68.9713C273.708 66.7365 279.377 67.8239 283.471 69.7656Z" fill="#191847"/>
<path fill-rule="evenodd" clip-rule="evenodd" d="M284.471 49.7656C283.794 48.1117 283.898 46.3176 284.052 44.6435C284.212 42.9046 284.397 41.16 284.787 39.4687C285.568 36.0894 287.365 32.6793 291.093 31.709C294.083 30.9311 297.541 31.7038 300.424 33.0006C302.345 33.8645 304.136 35.0938 305.656 36.5295C307.163 37.9538 308.17 39.7344 309.562 41.246C311.318 38.0889 313.736 35.0933 317.103 33.3869C320.343 31.7453 324.074 31.837 327.641 33.228C331.302 34.6558 334.349 37.1397 336.692 40.1813C337.279 40.9429 337.85 41.7175 338.361 42.5232C338.79 43.1979 339.205 43.9569 339.85 44.4806C340.569 45.0645 341.174 44.885 341.956 44.6683C342.874 44.4142 343.833 44.2702 344.802 44.2051C349.084 43.9179 353.75 45.3389 356.853 48.5142C358.283 49.9772 359.461 51.7999 359.946 53.7083C360.378 55.4094 360.155 57.6264 361.167 59.1885C361.597 59.8515 362.266 59.6292 362.998 59.5903C364.097 59.5318 365.184 59.401 366.286 59.3615C367.834 59.3057 369.388 59.4743 370.905 59.9347C373.124 60.6087 375.857 62.1735 375.257 64.6968C375.031 65.6446 374.394 66.4481 373.879 67.2508C373.173 68.353 372.462 69.4526 371.733 70.5408C371.18 71.3671 370.619 72.1508 369.968 72.9054C369.621 73.3076 368.842 73.9873 368.833 74.569C368.821 75.296 370.337 75.6825 370.901 76.0066C372.015 76.6469 373.065 77.4178 373.898 78.3814C374.543 79.1283 375.152 80.0462 375.079 81.0123C375.035 81.6058 374.717 82.0712 374.355 82.5142C373.92 83.0457 373.89 83.4336 373.661 84.0811C375.519 84.2566 381.542 85.6501 380.989 88.3005C380.805 89.183 379.843 89.781 379.117 90.2229C377.843 90.998 376.412 91.5647 374.986 92.073C372.011 93.1334 368.821 93.7174 365.596 93.9539C367.87 96.5172 366.952 100.039 363.509 100.604C361.989 100.853 360.434 100.264 359.095 99.4873C358.605 99.2029 357.969 98.6588 357.536 98.5236C357.303 98.4508 356.996 98.4818 356.694 98.3432C354.705 97.4323 352.734 95.887 351.039 94.5273C348.017 92.1045 345.545 89.0783 344.028 85.6601C343.639 84.7833 343.248 84.19 342.347 83.7225C341.557 83.3127 340.689 83.0855 339.895 82.6862C337.793 81.6299 336.372 79.7819 334.743 78.1902C333.462 80.3224 336.411 70.8182 334.298 72.2278C334.298 72.2278 312.529 76.1658 310.669 75.3616C304.723 72.7905 312.397 77.2639 306.679 74.2436C301.853 70.1008 311.653 78.2264 306.679 74.2436C308.255 73.8302 308.861 76.1162 306.679 74.2436C306.679 74.2436 293.927 76.5725 290.039 82.2597C287.29 86.2808 292.042 84.0073 293.007 89.4251C293.567 92.5704 296.251 95.0919 298.356 97.4311C295.374 98.1351 293.486 100.508 291.085 102.077C289.9 102.851 288.396 103.638 286.841 103.303C286.266 103.179 285.673 102.88 285.096 103.014C279.771 103.014 284.013 103.594 283.195 103.628C279.93 103.767 276.097 101.592 274.896 98.5188C273.81 95.7391 275.773 93.2904 278.366 92.4288C276.204 90.0902 272 86.3287 274.9 83.4048C269.316 80.0347 259.505 64.7767 270.27 63.1269C267.099 58.8649 265.816 51.8736 270.84 48.9713C274.708 46.7365 280.377 47.8239 284.471 49.7656Z" fill="#191847"/>
<path d="M138 245.356C138.214 245.293 138.546 245.229 138.996 245.166C139.468 245.102 139.95 245.071 140.443 245.071C140.914 245.071 141.332 245.102 141.696 245.166C142.082 245.229 142.403 245.356 142.661 245.546C142.918 245.737 143.111 246.001 143.239 246.339C143.389 246.656 143.464 247.079 143.464 247.607V254.424C143.464 255.291 143.678 255.915 144.107 256.295C144.536 256.654 145.157 256.834 145.971 256.834C146.464 256.834 146.86 256.792 147.16 256.707C147.482 256.623 147.728 256.538 147.9 256.454V245.356C148.114 245.293 148.446 245.229 148.896 245.166C149.368 245.102 149.85 245.071 150.343 245.071C150.814 245.071 151.232 245.102 151.596 245.166C151.982 245.229 152.303 245.356 152.56 245.546C152.817 245.737 153.01 246.001 153.139 246.339C153.289 246.656 153.364 247.079 153.364 247.607V257.246C153.364 258.303 152.914 259.096 152.014 259.624C151.264 260.089 150.364 260.438 149.314 260.671C148.285 260.924 147.16 261.051 145.939 261.051C144.782 261.051 143.711 260.924 142.725 260.671C141.761 260.417 140.925 260.026 140.218 259.498C139.511 258.969 138.964 258.293 138.579 257.468C138.193 256.623 138 255.608 138 254.424V245.356Z" fill="#E2B9DE"/>
<path d="M156.579 240.854C156.579 240.05 156.847 239.374 157.383 238.824C157.94 238.275 158.668 238 159.568 238C160.468 238 161.186 238.275 161.722 238.824C162.279 239.374 162.557 240.05 162.557 240.854C162.557 241.657 162.279 242.333 161.722 242.883C161.186 243.433 160.468 243.707 159.568 243.707C158.668 243.707 157.94 243.433 157.383 242.883C156.847 242.333 156.579 241.657 156.579 240.854ZM162.3 260.512C162.065 260.554 161.711 260.607 161.24 260.671C160.79 260.755 160.329 260.798 159.858 260.798C159.386 260.798 158.958 260.766 158.572 260.702C158.208 260.639 157.897 260.512 157.64 260.322C157.383 260.132 157.179 259.878 157.029 259.561C156.9 259.223 156.836 258.789 156.836 258.261V245.356C157.072 245.314 157.415 245.261 157.865 245.198C158.336 245.113 158.808 245.071 159.279 245.071C159.75 245.071 160.168 245.102 160.533 245.166C160.918 245.229 161.24 245.356 161.497 245.546C161.754 245.737 161.947 246.001 162.075 246.339C162.225 246.656 162.3 247.079 162.3 247.607V260.512Z" fill="#E2B9DE"/>
<path d="M168.64 263.905C168.34 263.947 168.05 263.968 167.772 263.968C167.493 263.989 167.236 264 167 264C166.1 264 165.404 263.81 164.911 263.429C164.44 263.049 164.204 262.436 164.204 261.59C164.204 261.02 164.29 260.449 164.461 259.878C164.633 259.286 164.783 258.768 164.911 258.324L170.568 238.19C170.89 238.148 171.19 238.127 171.468 238.127C171.747 238.106 172.004 238.095 172.239 238.095C173.097 238.095 173.772 238.275 174.264 238.634C174.779 238.993 175.036 239.575 175.036 240.378C175.036 240.991 174.95 241.572 174.779 242.122C174.607 242.672 174.447 243.221 174.297 243.771L168.64 263.905Z" fill="#E2B9DE"/>
<path d="M176.796 245.356C177.011 245.293 177.343 245.229 177.793 245.166C178.264 245.102 178.746 245.071 179.239 245.071C179.711 245.071 180.128 245.102 180.493 245.166C180.878 245.229 181.2 245.356 181.457 245.546C181.714 245.737 181.907 246.001 182.035 246.339C182.185 246.656 182.26 247.079 182.26 247.607V254.424C182.26 255.291 182.475 255.915 182.903 256.295C183.332 256.654 183.953 256.834 184.768 256.834C185.26 256.834 185.657 256.792 185.957 256.707C186.278 256.623 186.525 256.538 186.696 256.454V245.356C186.91 245.293 187.242 245.229 187.692 245.166C188.164 245.102 188.646 245.071 189.139 245.071C189.61 245.071 190.028 245.102 190.392 245.166C190.778 245.229 191.1 245.356 191.357 245.546C191.614 245.737 191.807 246.001 191.935 246.339C192.085 246.656 192.16 247.079 192.16 247.607V257.246C192.16 258.303 191.71 259.096 190.81 259.624C190.06 260.089 189.16 260.438 188.11 260.671C187.082 260.924 185.957 261.051 184.735 261.051C183.578 261.051 182.507 260.924 181.521 260.671C180.557 260.417 179.721 260.026 179.014 259.498C178.307 258.969 177.761 258.293 177.375 257.468C176.989 256.623 176.796 255.608 176.796 254.424V245.356Z" fill="#E2B9DE"/>
<path d="M194.636 247.639C194.808 246.836 195.14 246.18 195.633 245.673C196.147 245.166 196.779 244.912 197.529 244.912C198.236 244.912 198.782 245.081 199.168 245.42C199.554 245.758 199.982 246.233 200.454 246.846L202.511 249.51L205.95 244.912C207.129 244.912 208.061 245.124 208.746 245.546C209.432 245.948 209.775 246.498 209.775 247.195C209.775 247.47 209.732 247.724 209.646 247.956C209.582 248.167 209.475 248.389 209.325 248.622C209.175 248.854 208.982 249.119 208.746 249.415C208.511 249.711 208.232 250.059 207.911 250.461L205.789 252.807L210 258.293C209.893 259.096 209.571 259.73 209.036 260.195C208.5 260.66 207.857 260.893 207.107 260.893C206.293 260.872 205.639 260.639 205.147 260.195C204.675 259.751 204.214 259.212 203.764 258.578L202.029 256.137L198.75 260.798C198.643 260.798 198.525 260.798 198.397 260.798C198.268 260.819 198.161 260.829 198.075 260.829C196.983 260.829 196.147 260.607 195.568 260.163C195.011 259.72 194.733 259.17 194.733 258.515C194.733 258.007 194.85 257.563 195.086 257.183C195.343 256.781 195.772 256.242 196.372 255.566L198.943 252.617L194.636 247.639Z" fill="#E2B9DE"/>
</svg>
