<svg width="637" height="608" viewBox="0 0 637 608" fill="none" xmlns="http://www.w3.org/2000/svg">
<path d="M209.651 217.459H0.747803C0.747803 217.459 22.9322 218.692 26.013 195.275C29.0942 171.859 56.2087 162.204 75.9286 175.967C95.6478 189.728 107.356 182.54 119.064 175.967C130.773 169.393 144.945 173.707 154.805 188.496C164.667 203.285 172.436 204.327 183.152 202.053C196.709 199.177 200.407 216.843 209.651 217.459" fill="#E8FBFF"/>
<path d="M382.285 47.9893H591.188C591.188 47.9893 569.004 49.2227 565.921 25.8054C562.841 2.38803 535.727 -7.26531 516.008 6.49735C496.288 20.26 484.58 13.0707 472.871 6.49735C461.163 -0.0759806 446.989 4.23738 437.131 19.0267C427.269 33.8161 419.5 34.8573 408.783 32.584C395.227 29.708 391.528 47.3733 382.285 47.9893" fill="#E8FBFF"/>
<path d="M357.668 88.1054H61.6343C61.6343 88.1054 93.0707 89.852 97.4373 56.6667C101.804 23.484 140.227 9.80271 168.171 29.3054C196.115 48.808 212.707 38.62 229.299 29.3054C245.891 19.9907 265.976 26.104 279.947 47.0614C293.92 68.02 304.931 69.4947 320.117 66.2733C339.329 62.1973 344.569 87.232 357.668 88.1054Z" fill="#BAF1FF"/>
<path d="M315.757 571.971C315.507 576.651 261.515 577.575 195.16 574.034C128.805 570.495 75.2167 563.831 75.4667 559.151C75.7162 554.471 129.709 553.547 196.064 557.086C262.417 560.627 316.007 567.291 315.757 571.971Z" fill="#DEDEDE"/>
<path d="M299.161 573.268L103.767 554.808L62.4541 541.405L105.546 535.976L300.941 554.437C308.019 555.107 312.28 559.784 311.791 564.963C311.303 570.14 306.239 573.937 299.161 573.268" fill="#99BFC9"/>
<path d="M299.663 567.967L104.268 549.505L62.4541 541.405L105.045 541.28L300.44 559.741C307.517 560.409 312.005 562.7 311.791 564.963C311.577 567.224 306.74 568.635 299.663 567.967" fill="#779AA3"/>
<path d="M103.767 554.808L62.4541 541.405L105.546 535.976L103.767 554.808Z" fill="#DEDEDE"/>
<path d="M82.2926 538.907L62.4541 541.405L81.474 547.576L82.2926 538.907Z" fill="#003757"/>
<path d="M299.161 573.268L273.567 570.851L275.345 552.02L300.941 554.437L299.161 573.268" fill="#005C91"/>
<path d="M290.389 572.44L282.339 571.68L284.117 552.848L292.168 553.609L290.389 572.44" fill="#003757"/>
<path d="M157.364 409.58C157.364 416.336 124.077 421.812 83.0171 421.812C41.9561 421.812 8.67065 416.336 8.67065 409.58C8.67065 402.824 41.9561 397.347 83.0171 397.347C124.077 397.347 157.364 402.824 157.364 409.58Z" fill="#DEDEDE"/>
<path d="M636.649 404.293C636.649 411.049 603.363 416.527 562.303 416.527C521.243 416.527 487.957 411.049 487.957 404.293C487.957 397.536 521.243 392.06 562.303 392.06C603.363 392.06 636.649 397.536 636.649 404.293Z" fill="#DEDEDE"/>
<path d="M591.188 565.929C591.188 572.686 563.359 578.163 529.027 578.163C494.696 578.163 466.865 572.686 466.865 565.929C466.865 559.173 494.696 553.696 529.027 553.696C563.359 553.696 591.188 559.173 591.188 565.929Z" fill="#DEDEDE"/>
<path d="M514.823 535.976C514.823 541.307 492.865 545.629 465.78 545.629C438.695 545.629 416.739 541.307 416.739 535.976C416.739 530.646 438.695 526.325 465.78 526.325C492.865 526.325 514.823 530.646 514.823 535.976Z" fill="#DEDEDE"/>
<path d="M171.173 514.376C171.173 521.133 143.343 526.609 109.013 526.609C74.6817 526.609 46.8511 521.133 46.8511 514.376C46.8511 507.62 74.6817 502.143 109.013 502.143C143.343 502.143 171.173 507.62 171.173 514.376Z" fill="#DEDEDE"/>
<path d="M432.627 554.662C432.627 561.417 404.796 566.895 370.465 566.895C336.135 566.895 308.304 561.417 308.304 554.662C308.304 547.905 336.135 542.428 370.465 542.428C404.796 542.428 432.627 547.905 432.627 554.662Z" fill="#DEDEDE"/>
<path d="M519.577 508.214C519.577 520.868 436.658 531.127 334.372 531.127C232.085 531.127 149.167 520.868 149.167 508.214C149.167 495.56 232.085 485.303 334.372 485.303C436.658 485.303 519.577 495.56 519.577 508.214Z" fill="#DEDEDE"/>
<path d="M76.412 368.179C61.4989 368.179 49.4093 356.088 49.4093 341.176C49.4093 326.263 61.4989 314.173 76.412 314.173C91.3251 314.173 103.415 326.263 103.415 341.176C103.415 356.088 91.3251 368.179 76.412 368.179V368.179ZM132.857 340.983C132.832 333.324 131.281 326.025 128.493 319.372L141.924 313.743C138.311 305.121 133.103 297.399 126.445 290.787L116.183 301.121C110.969 295.944 104.748 291.784 97.8421 288.948L103.38 275.471C94.8136 271.949 85.7401 270.165 76.412 270.165H76.238L76.3251 284.728C68.647 284.74 61.3307 286.287 54.6615 289.075L49.0432 275.636C40.4183 279.243 32.6907 284.444 26.0735 291.092L36.3964 301.364C31.214 306.573 27.0489 312.789 24.2057 319.691L10.7328 314.141C7.19481 322.731 5.40161 331.827 5.40161 341.176L5.40628 341.523L18.7672 341.292H19.9651C19.9797 348.937 21.5188 356.227 24.2891 362.873L10.8432 368.476C14.4385 377.105 19.6312 384.839 26.2771 391.465L36.5579 381.151C41.7615 386.34 47.9751 390.511 54.8746 393.361L49.3115 406.827C57.9161 410.384 67.0344 412.187 76.412 412.187H77.1036L77.7921 412.12L76.4694 397.635V397.625C84.1172 397.617 91.4057 396.083 98.0552 393.32L103.648 406.772C112.281 403.184 120.019 397.999 126.648 391.363L116.347 381.073C121.541 375.873 125.72 369.663 128.577 362.765L142.036 368.341C145.611 359.713 147.421 350.575 147.421 341.023L132.857 340.983" fill="#133447"/>
<path d="M76.412 368.179C61.4989 368.179 49.4093 356.088 49.4093 341.176C49.4093 326.263 61.4989 314.173 76.412 314.173C91.325 314.173 103.414 326.263 103.414 341.176C103.414 356.088 91.325 368.179 76.412 368.179V368.179ZM76.412 284.725C45.236 284.725 19.9614 309.999 19.9614 341.176C19.9614 372.353 45.236 397.627 76.412 397.627C107.588 397.627 132.863 372.353 132.863 341.176C132.863 309.999 107.588 284.725 76.412 284.725Z" fill="#1E5370"/>
<path d="M76.4119 357.732C67.2682 357.732 59.8562 350.319 59.8562 341.176C59.8562 332.032 67.2682 324.62 76.4119 324.62C85.5551 324.62 92.9677 332.032 92.9677 341.176C92.9677 350.319 85.5551 357.732 76.4119 357.732Z" fill="#133447"/>
<path d="M556.351 375.433C534.973 372.145 520.309 352.152 523.597 330.776C526.885 309.4 546.88 294.736 568.256 298.023C589.633 301.311 604.297 321.305 601.009 342.681C597.721 364.057 577.727 378.721 556.351 375.433ZM618.121 345.119C619.26 337.544 618.839 330.093 617.092 323.095L631.224 319.572C628.964 310.501 624.989 302.077 619.415 294.529L607.7 303.185C603.335 297.276 597.817 292.219 591.423 288.365L598.945 275.887C591.015 271.104 582.317 267.961 573.097 266.543L572.925 266.517L570.799 280.923C563.208 279.768 555.741 280.185 548.725 281.925L545.215 267.789C536.141 270.044 527.713 274.009 520.163 279.575L528.805 291.296C522.891 295.656 517.829 301.168 513.971 307.557L501.497 300.024C496.696 307.975 493.539 316.693 492.119 325.933L492.071 326.277L505.309 328.08L506.495 328.261C505.348 335.823 505.76 343.26 507.488 350.251L493.347 353.745C495.588 362.82 499.545 371.252 505.107 378.812L516.836 370.181C521.191 376.1 526.697 381.168 533.084 385.033L525.537 397.497C533.503 402.32 542.241 405.488 551.509 406.913L552.192 407.019L552.883 407.059L553.779 392.539L553.78 392.529C561.34 393.685 568.776 393.276 575.769 391.556L579.251 405.701C588.329 403.468 596.765 399.52 604.327 393.969L595.709 382.232C601.635 377.883 606.707 372.379 610.58 365.997L623.036 373.553C627.879 365.569 631.06 356.812 632.511 347.371L618.121 345.119Z" fill="#003C5E"/>
<path d="M556.351 375.433C534.973 372.145 520.309 352.152 523.597 330.776C526.885 309.4 546.879 294.736 568.256 298.023C589.633 301.311 604.297 321.305 601.009 342.681C597.721 364.057 577.727 378.721 556.351 375.433ZM570.884 280.935C540.071 276.195 511.249 297.333 506.509 328.147C501.769 358.963 522.909 387.784 553.723 392.523C584.536 397.261 613.359 376.124 618.097 345.309C622.836 314.495 601.697 285.673 570.884 280.935Z" fill="#133447"/>
<path d="M432.845 473.348H203.823L218.058 412.987H418.608L432.845 473.348Z" fill="#003757"/>
<path d="M444.111 509.141H192.556C180.796 509.141 171.173 499.521 171.173 487.76C171.173 476 180.796 466.377 192.556 466.377H444.111C455.871 466.377 465.493 476 465.493 487.76C465.493 499.521 455.871 509.141 444.111 509.141" fill="#005C91"/>
<path d="M444.111 491.343H192.556C183.971 491.343 176.544 486.203 173.149 478.86C171.895 481.576 171.173 484.584 171.173 487.76C171.173 499.52 180.796 509.141 192.556 509.141H444.111C455.871 509.141 465.493 499.52 465.493 487.76C465.493 484.584 464.772 481.576 463.517 478.86C460.123 486.203 452.695 491.343 444.111 491.343" fill="#003757"/>
<path d="M351.423 477.361H221.033C219.519 477.361 218.277 476.121 218.277 474.605C218.277 473.089 219.519 471.849 221.033 471.849H351.423C352.94 471.849 354.18 473.089 354.18 474.605C354.18 476.121 352.94 477.361 351.423 477.361Z" fill="#5498BF"/>
<path d="M415.633 477.361H368.592C367.077 477.361 365.836 476.121 365.836 474.605C365.836 473.089 367.077 471.849 368.592 471.849H415.633C417.148 471.849 418.388 473.089 418.388 474.605C418.388 476.121 417.148 477.361 415.633 477.361Z" fill="#5498BF"/>
<path d="M551.319 416.248H85.3484C79.3136 416.248 74.376 411.309 74.376 405.275V127.757C74.376 121.724 79.3136 116.787 85.3484 116.787H551.319C557.353 116.787 562.291 121.724 562.291 127.757V405.275C562.291 411.309 557.353 416.248 551.319 416.248Z" fill="#005C91"/>
<path d="M543.965 376.233H92.7009C87.5925 376.233 83.4119 372.052 83.4119 366.943V145.437C83.4119 140.329 87.5925 136.148 92.7009 136.148H543.965C549.075 136.148 553.255 140.329 553.255 145.437V366.943C553.255 372.052 549.075 376.233 543.965 376.233Z" fill="#003C5E"/>
<path d="M540.025 372.16H96.6411C91.6639 372.16 87.5925 368.087 87.5925 363.111V149.271C87.5925 144.293 91.6639 140.221 96.6411 140.221H540.025C545.002 140.221 549.075 144.293 549.075 149.271V363.111C549.075 368.087 545.002 372.16 540.025 372.16" fill="#BAF1FF"/>
<path d="M117.052 372.127H519.615L531.468 140.353C530.927 140.248 530.373 140.189 529.808 140.189H106.859C106.294 140.189 105.74 140.248 105.199 140.353L117.052 372.127" fill="#99D0DE"/>
<path d="M329.538 396.145C329.538 402.335 324.522 407.353 318.333 407.353C312.144 407.353 307.126 402.335 307.126 396.145C307.126 389.957 312.144 384.94 318.333 384.94C324.522 384.94 329.538 389.957 329.538 396.145Z" fill="#E8FBFF"/>
<path d="M325.955 396.145C325.955 400.355 322.541 403.767 318.333 403.767C314.124 403.767 310.713 400.355 310.713 396.145C310.713 391.937 314.124 388.527 318.333 388.527C322.541 388.527 325.955 391.937 325.955 396.145Z" fill="#003757"/>
<path d="M117.089 372.16H519.577V72.82H117.089V372.16Z" fill="white"/>
<path d="M347.176 282.652H331.104C327.288 282.652 324.165 279.528 324.165 275.713V259.64C324.165 255.824 327.288 252.701 331.104 252.701H347.176C350.992 252.701 354.115 255.824 354.115 259.64V275.713C354.115 279.528 350.992 282.652 347.176 282.652Z" fill="#005C91"/>
<path d="M396.575 282.652H380.503C376.687 282.652 373.564 279.528 373.564 275.713V259.64C373.564 255.824 376.687 252.701 380.503 252.701H396.575C400.391 252.701 403.513 255.824 403.513 259.64V275.713C403.513 279.528 400.391 282.652 396.575 282.652Z" fill="#BAF1FF"/>
<path d="M495.371 282.652H479.299C475.481 282.652 472.36 279.529 472.36 275.713V259.64C472.36 255.824 475.481 252.701 479.299 252.701H495.371C499.188 252.701 502.309 255.824 502.309 259.64V275.713C502.309 279.529 499.188 282.652 495.371 282.652Z" fill="#8BC9D9"/>
<path d="M445.973 282.652H429.9C426.084 282.652 422.961 279.529 422.961 275.713V259.64C422.961 255.824 426.084 252.701 429.9 252.701H445.973C449.789 252.701 452.912 255.824 452.912 259.64V275.713C452.912 279.529 449.789 282.652 445.973 282.652Z" fill="#FF9CBD"/>
<path d="M244.489 333.929H223.513L215.473 372.127H253.669L244.489 333.929" fill="#BAF1FF"/>
<path d="M134.789 372.127H179.631V256.191H134.789V372.127Z" fill="#BAF1FF"/>
<path d="M219.164 372.127H174.321L189.644 309.764H210.384L219.164 372.127Z" fill="#BAF1FF"/>
<path d="M312.712 238.243H134.316V155.604H312.712V238.243Z" fill="#FF9CBD"/>
<path d="M201.227 196.923C201.227 211.043 189.78 222.489 175.661 222.489C161.541 222.489 150.095 211.043 150.095 196.923C150.095 182.804 161.541 171.357 175.661 171.357C189.78 171.357 201.227 182.804 201.227 196.923Z" fill="white"/>
<path d="M173.763 208.867C172.5 210.129 170.433 210.129 169.171 208.867L159.916 199.612C158.653 198.349 158.653 196.283 159.916 195.02C161.179 193.757 163.245 193.757 164.508 195.02L173.763 204.275C175.027 205.537 175.027 207.604 173.763 208.867Z" fill="#005C91"/>
<path d="M169.308 208.699C168.045 207.436 168.045 205.368 169.309 204.107L185.363 188.056C186.625 186.793 188.693 186.793 189.955 188.056C191.219 189.32 191.219 191.387 189.955 192.649L173.901 208.699C172.639 209.961 170.572 209.961 169.308 208.699" fill="#005C91"/>
<path d="M324.18 238.243H502.576V155.604H324.18V238.243Z" fill="#BAF1FF"/>
<path d="M514.144 97.5641H122.521V78.6774H514.144V97.5641Z" fill="#BAF1FF"/>
<path d="M428.843 92.0747H207.824V84.1667H428.843V92.0747Z" fill="#8BC9D9"/>
<path d="M497.837 93.108C497.497 92.7694 497.497 92.2134 497.837 91.8734L506.579 83.1334C506.917 82.7934 507.472 82.7934 507.812 83.1334C508.152 83.472 508.152 84.028 507.812 84.3667L499.072 93.108C498.732 93.448 498.177 93.448 497.837 93.108" fill="white"/>
<path d="M507.812 93.108C508.152 92.7694 508.152 92.2134 507.812 91.8734L499.072 83.1334C498.732 82.7934 498.177 82.7934 497.837 83.1334C497.497 83.472 497.497 84.028 497.837 84.3667L506.579 93.108C506.917 93.448 507.472 93.448 507.812 93.108" fill="white"/>
<path d="M485.461 82.2307C482.208 82.2307 479.572 84.868 479.572 88.12C479.572 91.3733 482.208 94.0107 485.461 94.0107C488.713 94.0107 491.351 91.3733 491.351 88.12C491.351 84.868 488.713 82.2307 485.461 82.2307ZM485.461 83.564C487.973 83.564 490.017 85.608 490.017 88.12C490.017 90.6333 487.973 92.6773 485.461 92.6773C482.948 92.6773 480.905 90.6333 480.905 88.12C480.905 85.608 482.948 83.564 485.461 83.564Z" fill="white"/>
<path d="M473.408 93.076H462.787C462.417 93.076 462.12 92.7787 462.12 92.4094C462.12 92.0414 462.417 91.7427 462.787 91.7427H473.408C473.776 91.7427 474.075 92.0414 474.075 92.4094C474.075 92.7787 473.776 93.076 473.408 93.076Z" fill="white"/>
<path d="M140.1 92.6974H129.48C129.111 92.6974 128.813 92.3987 128.813 92.0307C128.813 91.6614 129.111 91.3641 129.48 91.3641H140.1C140.469 91.3641 140.767 91.6614 140.767 92.0307C140.767 92.3987 140.469 92.6974 140.1 92.6974Z" fill="white"/>
<path d="M140.1 88.7867H129.48C129.111 88.7867 128.813 88.4893 128.813 88.12C128.813 87.752 129.111 87.4533 129.48 87.4533H140.1C140.469 87.4533 140.767 87.752 140.767 88.12C140.767 88.4893 140.469 88.7867 140.1 88.7867" fill="white"/>
<path d="M140.1 84.8774H129.48C129.111 84.8774 128.813 84.58 128.813 84.2107C128.813 83.8427 129.111 83.544 129.48 83.544H140.1C140.469 83.544 140.767 83.8427 140.767 84.2107C140.767 84.58 140.469 84.8774 140.1 84.8774Z" fill="white"/>
<path d="M290.591 201.927H215.783C213.832 201.927 212.235 200.329 212.235 198.377C212.235 196.425 213.832 194.828 215.783 194.828H290.591C292.544 194.828 294.14 196.425 294.14 198.377C294.14 200.329 292.544 201.927 290.591 201.927Z" fill="white"/>
<path d="M290.591 185.924H215.783C213.832 185.924 212.235 184.327 212.235 182.375C212.235 180.423 213.832 178.827 215.783 178.827H290.591C292.544 178.827 294.14 180.423 294.14 182.375C294.14 184.327 292.544 185.924 290.591 185.924Z" fill="white"/>
<path d="M290.591 217.929H215.783C213.832 217.929 212.235 216.332 212.235 214.38C212.235 212.428 213.832 210.832 215.783 210.832H290.591C292.544 210.832 294.14 212.428 294.14 214.38C294.14 216.332 292.544 217.929 290.591 217.929Z" fill="white"/>
<path d="M146.387 376.233H112.597C111.382 374.864 110.424 374.196 110.424 374.196C104.606 373.576 101.653 372.353 101.653 372.353C101.659 372.288 101.667 372.224 101.675 372.16H117.089H152.127C149.66 373.656 146.603 373.839 146.603 373.839C146.584 374.683 146.508 375.477 146.387 376.233ZM87.5925 360.251C86.1483 358.832 84.7244 357.237 83.4119 355.471V334.728C83.5285 335.087 83.6509 335.445 83.7791 335.804C84.7305 338.573 86.0212 341.307 87.5925 343.791V360.251ZM83.4119 319.968V313.216C83.6597 313.085 83.8952 313.031 84.1056 313.031C84.804 313.031 85.2217 313.641 84.8644 314.131C84.2577 314.96 83.5305 316.157 83.4119 319.968" fill="#003350"/>
<path d="M117.089 372.127H117.051L114.315 318.625C114.826 318.4 115.357 318.212 115.906 318.065C116.308 317.957 116.702 317.86 117.089 317.773V372.127" fill="#82B1BD"/>
<path d="M493.792 416.248H428.202L427.917 398.896L427.65 382.679L427.545 376.233H431.545L431.585 378.045L487.932 378L487.876 376.233H493.35L493.778 415.075H493.78V415.076L493.792 416.248V416.248ZM488.632 399.927L432.061 399.947L432.337 412.632L489.034 412.628L488.632 399.927V399.927ZM488.08 382.637L431.685 382.677L431.96 395.285L488.481 395.26L488.08 382.637" fill="#004E7B"/>
<path d="M493.351 376.233H487.876L487.747 372.16H493.307L493.351 376.233ZM431.545 376.233H427.545L427.477 372.16H431.457L431.545 376.233" fill="#003350"/>
<path d="M493.307 372.16H487.747L487.532 365.455L431.312 365.515L431.457 372.16H427.477L425.985 281.433C427.001 282.132 428.209 282.568 429.511 282.641L429.745 293.419L437.205 293.399C436.825 290.975 436.477 288.555 436.179 286.168C436.025 284.985 435.885 283.812 435.756 282.652H445.973C447.516 282.652 448.947 282.141 450.101 281.28C450.108 282.639 450.121 284.021 450.144 285.429C450.177 288.025 450.239 290.688 450.315 293.364L464.696 293.328C464.34 290.867 463.973 288.42 463.596 286.035C463.351 284.379 463.096 282.752 462.839 281.171L450.2 281.207C451.591 280.132 452.567 278.543 452.836 276.731L462.087 276.704C461.587 273.828 461.096 271.167 460.656 268.819C460.361 267.265 460.083 265.869 459.827 264.623L458.505 264.627C457.219 264.812 455.855 264.911 454.413 264.915C454.397 264.915 454.383 264.915 454.368 264.915C453.868 264.915 453.384 264.887 452.912 264.84V259.64C452.912 255.824 449.789 252.701 445.973 252.701H429.9C428.252 252.701 426.732 253.284 425.537 254.255L425.275 238.243H429.835C429.835 238.249 429.835 238.256 429.835 238.261L430.011 249.193L431.32 249.212C431.388 248.933 431.456 248.66 431.525 248.369C431.751 247.413 431.981 246.4 432.213 245.333C432.329 244.8 432.445 244.252 432.56 243.693C432.912 241.989 433.259 240.167 433.587 238.243H476.223C476.527 239.365 476.856 240.495 477.211 241.624C477.853 243.663 478.581 245.704 479.407 247.713C479.459 247.841 479.512 247.968 479.565 248.096L479.099 248.097C480.001 249.687 480.975 251.232 482.04 252.701H479.299C475.481 252.701 472.36 255.824 472.36 259.64V275.713C472.36 278.889 474.524 281.587 477.451 282.4C477.491 283.275 477.525 284.156 477.553 285.047C477.664 287.756 477.721 290.524 477.737 293.293L485.235 293.275L484.896 282.652H492.321L492.349 285.216V285.217L492.529 301.601L492.709 317.943L492.889 334.24L493.068 350.492V350.493L493.247 366.703L493.307 372.16V372.16ZM486.989 348.379L430.941 348.459L431.212 360.912L487.387 360.847L486.989 348.379ZM469.476 331.437L430.573 331.507L430.843 343.883L486.844 343.799L486.449 331.407L477.003 331.423L476.688 331.461L469.907 331.472C469.761 331.472 469.62 331.452 469.476 331.437V331.437ZM441.463 314.633L430.207 314.657L430.475 326.959L440.957 326.939C440.819 326.107 440.869 325.161 441.265 324.121C441.799 322.717 442.465 321.743 443.185 321.049C442.605 319.065 442.029 316.915 441.463 314.633ZM467.729 314.577L451.013 314.613C451.061 316.437 451.097 318.188 451.115 319.832C452.639 320.465 454.072 321.581 455.111 323.208C455.469 323.769 455.712 324.357 455.872 324.939C456.06 325.616 456.055 326.285 455.916 326.912L465.621 326.893C465.635 326.227 465.763 325.515 466.103 324.755C466.891 322.997 467.857 321.956 468.856 321.324C468.476 319.279 468.103 317.005 467.729 314.577V314.577ZM485.912 314.537L476.929 314.557C476.725 316.915 476.485 319.121 476.215 321.112C477.7 321.841 479.068 323.043 480.015 324.729C480.341 325.311 480.553 325.912 480.683 326.503C480.708 326.625 480.701 326.744 480.717 326.864L486.304 326.855L485.912 314.537V314.537ZM437.952 297.889L429.843 297.911L430.108 310.139L440.393 310.115C439.515 306.227 438.688 302.089 437.952 297.889V297.889ZM465.336 297.821L450.455 297.859C450.593 302.041 450.751 306.181 450.879 310.091L467.056 310.055C466.493 306.164 465.925 302.013 465.336 297.821V297.821ZM485.377 297.772L477.721 297.791C477.668 302.012 477.512 306.159 477.267 310.032L485.768 310.013L485.377 297.772V297.772ZM428.841 248.275H428.763L428.769 248.548L428.841 248.275ZM491.991 252.701H483.943L483.856 249.973L487.453 250.027L487.329 239.149C487.327 238.825 487.393 238.519 487.516 238.243H491.605C491.753 238.539 491.839 238.871 491.843 239.22L491.987 252.312V252.313L491.991 252.701" fill="#D9D9D9"/>
<path d="M492.321 282.652H484.896L484.848 281.108L477.389 281.129C477.411 281.551 477.431 281.975 477.451 282.4C474.524 281.587 472.36 278.889 472.36 275.713V259.64C472.36 255.824 475.481 252.701 479.299 252.701H482.04C482.051 252.715 482.06 252.729 482.071 252.743C482.071 252.743 479.204 253.888 474.363 255.056C474.464 255.455 474.557 255.865 474.644 256.293C474.679 256.456 474.716 256.653 474.757 256.867L474.815 257.171C474.836 257.288 474.859 257.411 474.881 257.537C474.94 257.857 475.003 258.209 475.068 258.597L475.089 258.72H475.088C475.163 259.155 475.24 259.619 475.32 260.131L484.179 260.101L483.943 252.701H491.991L492.321 282.652V282.652ZM484.319 264.544L475.947 264.571C476.035 265.273 476.124 265.997 476.209 266.761C476.535 269.688 476.859 273.052 477.116 276.66L484.704 276.637L484.319 264.544" fill="#76ABB9"/>
<path d="M445.973 282.652H435.756C435.704 282.181 435.653 281.713 435.604 281.248L429.48 281.265L429.511 282.641C428.209 282.568 427.001 282.132 425.985 281.433L425.763 267.933L425.537 254.255C426.732 253.284 428.252 252.701 429.9 252.701H445.973C449.789 252.701 452.912 255.824 452.912 259.64V264.84C452.439 264.793 451.976 264.727 451.523 264.649L450.528 264.652C450.468 265.541 450.411 266.484 450.36 267.507C450.227 270.203 450.143 273.34 450.112 276.739L452.836 276.731C452.567 278.543 451.591 280.132 450.2 281.207H450.101C450.101 281.231 450.101 281.256 450.101 281.28C448.947 282.141 447.516 282.652 445.973 282.652V282.652ZM434.608 264.703L429.121 264.72L429.384 276.8L435.187 276.783C434.892 273.245 434.709 269.924 434.64 266.984C434.621 266.193 434.612 265.437 434.608 264.703ZM428.875 253.396L429.025 260.281L434.672 260.264C434.721 258.908 434.791 257.775 434.863 256.884L434.883 256.637C434.895 256.504 434.907 256.376 434.917 256.256C434.939 256.027 434.961 255.813 434.981 255.636C434.997 255.496 435.023 255.367 435.04 255.228C433.003 254.723 430.944 254.111 428.875 253.396" fill="#D985A1"/>
<path d="M483.856 249.973L480.364 249.923C480.089 249.317 479.821 248.708 479.565 248.096L483.796 248.08L483.856 249.973ZM502.576 189.485V173.136C503.324 171.716 503.977 170.312 504.562 168.984C503.829 168.007 503.229 166.328 503.952 163.565C505.329 158.295 504.816 156.649 504.346 155.528C504.144 155.044 504.516 154.621 505.056 154.621C505.765 154.621 506.764 155.347 507.134 157.611C507.786 161.599 507.786 161.599 507.786 161.599C507.786 161.599 511.716 154.243 514.964 152.679C515.242 152.545 515.485 152.481 515.696 152.481C517.942 152.481 516.542 159.659 515.589 164.767C514.974 168.056 512.688 169.989 510.362 170.648C509.949 173.688 509.137 177.169 507.629 180.721C506.618 183.237 505.205 185.729 503.574 188.116C503.254 188.58 502.92 189.037 502.576 189.485V189.485ZM470.597 155.604H443.849C442.385 151.137 444.146 147.852 444.146 147.852C446.609 147.731 448.861 147.62 450.977 147.62C457.002 147.62 461.932 148.516 467.486 152.6C468.709 153.5 469.741 154.511 470.597 155.604V155.604ZM415.189 155.604H406.229C405.384 154.203 404.697 152.143 404.232 149.209C403.378 143.841 406.273 137.393 408.656 137.393C409.069 137.393 409.465 137.587 409.825 138.012C412.261 140.891 413.129 149.409 413.129 149.409C413.129 149.409 413.129 149.409 413.75 148.419C414.065 147.917 414.538 147.16 415.253 146.021C416.18 144.543 417.106 144.065 417.785 144.065C418.662 144.065 419.126 144.865 418.64 145.332C417.777 146.157 416.674 147.445 415.953 152.911C415.805 154.033 415.53 154.913 415.189 155.604" fill="#D9D9D9"/>
<path d="M491.605 238.243H487.516C487.856 237.483 488.623 236.957 489.524 236.957C489.537 236.957 489.549 236.957 489.561 236.957C490.453 236.972 491.232 237.495 491.605 238.243ZM476.223 238.243H433.587C433.904 236.375 434.205 234.412 434.475 232.368C434.567 231.677 434.655 230.976 434.739 230.267C434.907 228.848 435.057 227.395 435.189 225.912C435.649 220.719 435.861 215.16 435.649 209.443C435.649 209.443 435.469 209.419 435.141 209.364C434.813 209.309 434.339 209.224 433.745 209.101C432.856 208.916 431.703 208.644 430.392 208.263C429.519 208.009 428.575 207.707 427.592 207.347C426.609 206.988 425.588 206.572 424.559 206.093C421.985 204.895 419.367 203.3 417.195 201.195C417.195 201.195 417.407 200.615 417.78 199.701C416.604 198.729 415.343 197.328 413.903 195.739C411.089 192.341 408.315 187.483 406.791 182.1C406.461 180.748 406.021 179.389 405.811 178.012C405.641 176.639 405.472 175.257 405.303 173.877C405.196 173.189 405.181 172.509 405.197 171.833C405.203 171.16 405.208 170.488 405.212 169.82C405.223 169.156 405.233 168.495 405.243 167.837C405.239 167.18 405.275 166.537 405.381 165.912C405.559 164.667 405.732 163.441 405.901 162.248C406.072 161.065 406.244 159.924 406.58 158.876C406.775 158.167 406.969 157.492 407.163 156.833C406.835 156.496 406.523 156.089 406.229 155.604H415.189C414.661 156.669 413.971 157.283 413.332 157.637C413.336 158.367 413.333 159.115 413.321 159.891C413.263 160.895 413.36 161.939 413.447 163.004C413.515 164.065 413.583 165.155 413.653 166.264C413.66 166.819 413.735 167.371 413.844 167.92C413.933 168.469 414.025 169.023 414.116 169.579L414.375 171.243C414.444 171.801 414.54 172.355 414.717 172.887C415.007 173.956 415.296 175.027 415.584 176.092C415.885 177.141 416.375 178.108 416.732 179.096C418.371 182.969 420.612 186.101 422.691 188.275C423.001 188.556 423.293 188.829 423.575 189.093C424.836 187.443 426.232 186.025 427.716 185.18C427.716 185.18 439.928 192.267 445.54 193.247C445.651 193.265 445.867 193.327 446.159 193.411C446.452 191.513 446.548 190.048 446.553 188.959C441.641 188.339 437.761 185.66 436.779 181.073C434.355 169.753 439.691 162.019 444.755 157.711C444.367 156.987 444.071 156.281 443.849 155.604H470.597C475.097 161.355 474.732 169.375 471.704 175.251C469.465 179.599 466.151 183.655 461.839 184.888C461.125 185.381 460.384 185.856 459.577 186.285C458.844 186.676 458.1 187.011 457.355 187.319C457.492 189.292 457.425 191.933 456.901 195.344C457.575 195.38 458.267 195.399 458.975 195.399C465.32 195.399 472.979 193.816 479.863 187.925C479.863 187.925 480.432 189.223 481.209 191.36C484.248 190.407 487.823 188.913 491.121 186.559C494.719 184.088 497.936 180.62 500.376 176.855C501.195 175.629 501.921 174.377 502.576 173.136V189.485C501.147 191.339 499.519 193.052 497.807 194.6C493.545 198.477 488.617 201.008 484.596 202.533L484.416 202.597C484.711 204.052 484.971 205.547 485.157 207.061C485.157 207.061 484.924 207.191 484.505 207.397C483.247 208.02 480.313 209.352 476.989 210.041C475.881 210.271 474.729 210.429 473.58 210.467C473.412 210.472 473.243 210.475 473.073 210.475C472.86 210.475 472.647 210.471 472.435 210.461C472.435 210.463 472.32 222.187 475.532 235.545C475.748 236.439 475.977 237.339 476.223 238.243V238.243ZM429.835 238.243H425.275L425.273 238.192C425.253 236.967 426.24 235.988 427.481 235.988C427.493 235.988 427.505 235.988 427.519 235.988C428.771 236.007 429.804 237.015 429.835 238.243" fill="#9ECDD9"/>
<path d="M395.424 376.233H382.908C383.416 374.941 383.917 373.575 384.409 372.16H396.331C396.321 372.209 396.312 372.259 396.303 372.308C396.029 373.633 395.737 374.945 395.424 376.233ZM370.873 376.233H341.024C340.637 374.849 340.364 373.491 340.191 372.16H373.063C372.447 373.556 371.72 374.923 370.873 376.233ZM330.156 376.233H316.668C316.403 374.916 316.181 373.552 316.009 372.16H328.565C329.061 373.639 329.597 375.007 330.156 376.233Z" fill="#003350"/>
<path d="M326.024 404.297C325.302 403.447 324.572 402.483 323.857 401.395C325.157 400.028 325.954 398.18 325.954 396.145C325.954 393.019 324.069 390.332 321.375 389.157C321.036 388.592 320.744 387.928 320.38 387.228C320.04 386.539 319.659 385.8 319.34 384.985C325.057 385.493 329.539 390.296 329.539 396.145C329.539 399.357 328.188 402.253 326.024 404.297" fill="#C5D6D9"/>
<path d="M323.857 401.395C322.866 399.885 321.902 398.136 321.028 396.112C321.028 396.112 321.809 394.348 323.18 391.987L323.139 391.936C322.753 391.439 322.216 390.524 321.475 389.317C321.44 389.265 321.408 389.212 321.375 389.157C324.069 390.332 325.954 393.019 325.954 396.145C325.954 398.18 325.157 400.028 323.857 401.395" fill="#002F4A"/>
<path d="M434.891 536.761C433.655 536.761 432.652 535.759 432.652 534.524V235.356C432.652 234.119 433.655 233.117 434.891 233.117C436.127 233.117 437.129 234.119 437.129 235.356V534.524C437.129 535.759 436.127 536.761 434.891 536.761" fill="#0E2533"/>
<path d="M496.095 536.761C494.86 536.761 493.857 535.759 493.857 534.524V235.356C493.857 234.119 494.86 233.117 496.095 233.117C497.331 233.117 498.333 234.119 498.333 235.356V534.524C498.333 535.759 497.331 536.761 496.095 536.761" fill="#0E2533"/>
<path d="M496.095 250.775H434.891C433.655 250.775 432.652 249.773 432.652 248.536C432.652 247.3 433.655 246.299 434.891 246.299H496.095C497.331 246.299 498.333 247.3 498.333 248.536C498.333 249.773 497.331 250.775 496.095 250.775Z" fill="#0E2533"/>
<path d="M496.095 267.399H434.891C433.655 267.399 432.652 266.397 432.652 265.161C432.652 263.924 433.655 262.923 434.891 262.923H496.095C497.331 262.923 498.333 263.924 498.333 265.161C498.333 266.397 497.331 267.399 496.095 267.399Z" fill="#0E2533"/>
<path d="M496.095 284.023H434.891C433.655 284.023 432.652 283.021 432.652 281.784C432.652 280.548 433.655 279.547 434.891 279.547H496.095C497.331 279.547 498.333 280.548 498.333 281.784C498.333 283.021 497.331 284.023 496.095 284.023Z" fill="#0E2533"/>
<path d="M496.095 300.647H434.891C433.655 300.647 432.652 299.644 432.652 298.408C432.652 297.172 433.655 296.169 434.891 296.169H496.095C497.331 296.169 498.333 297.172 498.333 298.408C498.333 299.644 497.331 300.647 496.095 300.647Z" fill="#0E2533"/>
<path d="M496.095 317.271H434.891C433.655 317.271 432.652 316.268 432.652 315.032C432.652 313.797 433.655 312.795 434.891 312.795H496.095C497.331 312.795 498.333 313.797 498.333 315.032C498.333 316.268 497.331 317.271 496.095 317.271Z" fill="#0E2533"/>
<path d="M496.095 333.895H434.891C433.655 333.895 432.652 332.892 432.652 331.656C432.652 330.42 433.655 329.417 434.891 329.417H496.095C497.331 329.417 498.333 330.42 498.333 331.656C498.333 332.892 497.331 333.895 496.095 333.895Z" fill="#0E2533"/>
<path d="M496.095 350.519H434.891C433.655 350.519 432.652 349.516 432.652 348.28C432.652 347.044 433.655 346.041 434.891 346.041H496.095C497.331 346.041 498.333 347.044 498.333 348.28C498.333 349.516 497.331 350.519 496.095 350.519Z" fill="#0E2533"/>
<path d="M496.095 367.141H434.891C433.655 367.141 432.652 366.139 432.652 364.904C432.652 363.668 433.655 362.665 434.891 362.665H496.095C497.331 362.665 498.333 363.668 498.333 364.904C498.333 366.139 497.331 367.141 496.095 367.141Z" fill="#0E2533"/>
<path d="M496.095 383.765H434.891C433.655 383.765 432.652 382.763 432.652 381.528C432.652 380.292 433.655 379.289 434.891 379.289H496.095C497.331 379.289 498.333 380.292 498.333 381.528C498.333 382.763 497.331 383.765 496.095 383.765Z" fill="#0E2533"/>
<path d="M496.095 400.391H434.891C433.655 400.391 432.652 399.388 432.652 398.152C432.652 396.917 433.655 395.915 434.891 395.915H496.095C497.331 395.915 498.333 396.917 498.333 398.152C498.333 399.388 497.331 400.391 496.095 400.391Z" fill="#0E2533"/>
<path d="M496.095 417.015H434.891C433.655 417.015 432.652 416.012 432.652 414.776C432.652 413.54 433.655 412.537 434.891 412.537H496.095C497.331 412.537 498.333 413.54 498.333 414.776C498.333 416.012 497.331 417.015 496.095 417.015Z" fill="#0E2533"/>
<path d="M496.095 433.639H434.891C433.655 433.639 432.652 432.636 432.652 431.4C432.652 430.164 433.655 429.161 434.891 429.161H496.095C497.331 429.161 498.333 430.164 498.333 431.4C498.333 432.636 497.331 433.639 496.095 433.639Z" fill="#0E2533"/>
<path d="M496.095 450.261H434.891C433.655 450.261 432.652 449.259 432.652 448.024C432.652 446.788 433.655 445.785 434.891 445.785H496.095C497.331 445.785 498.333 446.788 498.333 448.024C498.333 449.259 497.331 450.261 496.095 450.261Z" fill="#0E2533"/>
<path d="M496.095 466.885H434.891C433.655 466.885 432.652 465.883 432.652 464.647C432.652 463.412 433.655 462.409 434.891 462.409H496.095C497.331 462.409 498.333 463.412 498.333 464.647C498.333 465.883 497.331 466.885 496.095 466.885Z" fill="#0E2533"/>
<path d="M496.095 483.509H434.891C433.655 483.509 432.652 482.507 432.652 481.271C432.652 480.035 433.655 479.032 434.891 479.032H496.095C497.331 479.032 498.333 480.035 498.333 481.271C498.333 482.507 497.331 483.509 496.095 483.509Z" fill="#0E2533"/>
<path d="M496.095 500.135H434.891C433.655 500.135 432.652 499.132 432.652 497.896C432.652 496.66 433.655 495.657 434.891 495.657H496.095C497.331 495.657 498.333 496.66 498.333 497.896C498.333 499.132 497.331 500.135 496.095 500.135Z" fill="#0E2533"/>
<path d="M496.095 516.757H434.891C433.655 516.757 432.652 515.755 432.652 514.52C432.652 513.284 433.655 512.281 434.891 512.281H496.095C497.331 512.281 498.333 513.284 498.333 514.52C498.333 515.755 497.331 516.757 496.095 516.757Z" fill="#0E2533"/>
<path d="M422.285 155.604C423.325 155.013 424.527 153.715 424.943 150.867C425.736 145.468 426.831 144.172 427.683 143.34C428.535 142.507 426.501 140.712 424.377 144.097C423.664 145.235 423.191 145.991 422.875 146.492L422.285 155.604Z" fill="#A5542D"/>
<path d="M134.316 145.969H502.351V110.811H134.316V145.969Z" fill="#8BC9D9"/>
<path d="M449.007 127.252C448.093 127.252 447.284 127.057 446.579 126.667C445.884 126.277 445.389 125.758 445.094 125.11C445.018 124.958 445.013 124.82 445.08 124.696C445.156 124.563 445.28 124.473 445.451 124.425C445.585 124.387 445.713 124.401 445.837 124.468C445.97 124.534 446.07 124.634 446.137 124.768C446.356 125.187 446.717 125.529 447.222 125.796C447.727 126.062 448.322 126.196 449.007 126.196C449.759 126.196 450.378 126.015 450.863 125.653C451.358 125.282 451.606 124.749 451.606 124.054C451.606 123.473 451.392 122.973 450.963 122.554C450.535 122.135 449.864 121.869 448.95 121.755C447.836 121.621 446.965 121.279 446.337 120.726C445.708 120.165 445.394 119.479 445.394 118.67C445.394 118.089 445.547 117.585 445.851 117.156C446.165 116.728 446.594 116.4 447.136 116.171C447.679 115.933 448.303 115.814 449.007 115.814C449.797 115.814 450.473 115.995 451.035 116.357C451.596 116.709 452.03 117.128 452.334 117.613C452.429 117.766 452.458 117.913 452.42 118.056C452.391 118.199 452.31 118.308 452.177 118.385C452.034 118.451 451.887 118.461 451.734 118.413C451.592 118.365 451.482 118.275 451.406 118.142C451.187 117.809 450.887 117.518 450.506 117.271C450.135 117.014 449.631 116.88 448.993 116.871C448.241 116.871 447.636 117.033 447.179 117.356C446.722 117.671 446.494 118.132 446.494 118.742C446.494 119.227 446.689 119.651 447.079 120.012C447.479 120.374 448.184 120.626 449.193 120.769C450.383 120.941 451.263 121.307 451.834 121.869C452.415 122.421 452.705 123.144 452.705 124.039C452.705 124.725 452.539 125.31 452.206 125.796C451.882 126.272 451.439 126.634 450.878 126.881C450.316 127.129 449.692 127.252 449.007 127.252ZM455.592 127.11C455.43 127.11 455.296 127.057 455.192 126.952C455.087 126.848 455.035 126.714 455.035 126.553V116.514C455.035 116.352 455.087 116.219 455.192 116.114C455.296 116.009 455.43 115.957 455.592 115.957H462.289C462.441 115.957 462.57 116.009 462.674 116.114C462.789 116.209 462.846 116.338 462.846 116.5C462.846 116.642 462.789 116.766 462.674 116.871C462.57 116.976 462.441 117.028 462.289 117.028H456.149V120.969H460.618C460.78 120.969 460.913 121.022 461.018 121.126C461.123 121.231 461.175 121.36 461.175 121.512C461.175 121.664 461.123 121.793 461.018 121.897C460.913 122.002 460.78 122.054 460.618 122.054H456.149V126.039H462.289C462.441 126.039 462.57 126.091 462.674 126.196C462.789 126.3 462.846 126.424 462.846 126.567C462.846 126.729 462.789 126.862 462.674 126.967C462.57 127.062 462.441 127.11 462.289 127.11H455.592ZM464.308 127.11C464.089 127.11 463.932 127.019 463.837 126.838C463.741 126.657 463.732 126.481 463.808 126.31L468.006 116.343C468.111 116.085 468.292 115.957 468.549 115.957C468.796 115.957 468.973 116.085 469.077 116.343L473.29 126.324C473.375 126.505 473.361 126.681 473.247 126.852C473.142 127.024 472.99 127.11 472.79 127.11C472.533 127.11 472.357 126.995 472.262 126.767L471.319 124.453H465.779L464.822 126.767C464.774 126.881 464.703 126.967 464.608 127.024C464.522 127.081 464.422 127.11 464.308 127.11ZM466.178 123.497H470.919L468.549 117.77L466.178 123.497ZM475.519 127.11C475.357 127.11 475.224 127.057 475.119 126.952C475.015 126.848 474.962 126.714 474.962 126.553V116.514C474.962 116.352 475.015 116.219 475.119 116.114C475.224 116.009 475.357 115.957 475.519 115.957H478.19C478.885 115.957 479.503 116.105 480.046 116.4C480.589 116.685 481.012 117.09 481.317 117.613C481.631 118.127 481.788 118.722 481.788 119.398C481.788 120.141 481.588 120.788 481.188 121.34C480.789 121.883 480.255 122.269 479.589 122.497L481.931 126.253C482.074 126.481 482.098 126.681 482.002 126.852C481.917 127.024 481.745 127.11 481.488 127.11C481.364 127.11 481.265 127.086 481.188 127.038C481.122 126.991 481.06 126.919 481.003 126.824L478.432 122.726C478.356 122.735 478.275 122.74 478.19 122.74H476.076V126.553C476.076 126.714 476.024 126.848 475.919 126.952C475.814 127.057 475.681 127.11 475.519 127.11ZM476.076 121.669H478.19C478.675 121.669 479.103 121.574 479.475 121.383C479.856 121.183 480.155 120.912 480.374 120.569C480.593 120.227 480.703 119.836 480.703 119.398C480.703 118.932 480.593 118.523 480.374 118.17C480.155 117.809 479.856 117.528 479.475 117.328C479.103 117.128 478.675 117.028 478.19 117.028H476.076V121.669ZM488.802 127.252C488.031 127.252 487.307 127.105 486.631 126.81C485.965 126.515 485.375 126.105 484.861 125.582C484.356 125.048 483.961 124.439 483.675 123.754C483.39 123.059 483.247 122.316 483.247 121.526C483.247 120.745 483.385 120.012 483.661 119.327C483.947 118.632 484.342 118.023 484.846 117.499C485.36 116.976 485.951 116.566 486.617 116.271C487.293 115.966 488.021 115.814 488.802 115.814C489.487 115.814 490.111 115.914 490.673 116.114C491.234 116.314 491.777 116.633 492.3 117.071C492.424 117.166 492.477 117.29 492.458 117.442C492.438 117.585 492.367 117.685 492.243 117.742C492.215 117.856 492.124 117.928 491.972 117.956C491.829 117.985 491.686 117.942 491.544 117.828C491.172 117.504 490.768 117.266 490.33 117.114C489.892 116.952 489.383 116.871 488.802 116.871C488.183 116.871 487.602 116.995 487.06 117.242C486.527 117.49 486.055 117.828 485.646 118.256C485.237 118.684 484.913 119.179 484.675 119.741C484.447 120.303 484.332 120.898 484.332 121.526C484.332 122.173 484.447 122.778 484.675 123.34C484.913 123.901 485.237 124.396 485.646 124.825C486.055 125.253 486.527 125.591 487.06 125.839C487.602 126.077 488.183 126.196 488.802 126.196C489.83 126.196 490.768 125.862 491.615 125.196C491.786 125.063 491.967 125.044 492.158 125.139C492.358 125.234 492.458 125.396 492.458 125.624C492.458 125.777 492.405 125.91 492.3 126.024C491.815 126.472 491.272 126.791 490.673 126.981C490.073 127.162 489.449 127.252 488.802 127.252ZM495.363 127.11C495.201 127.11 495.068 127.057 494.963 126.952C494.859 126.848 494.806 126.714 494.806 126.553V116.514C494.806 116.352 494.859 116.219 494.963 116.114C495.068 116.009 495.201 115.957 495.363 115.957C495.525 115.957 495.658 116.009 495.763 116.114C495.868 116.219 495.92 116.352 495.92 116.514V120.969H502.889V116.514C502.889 116.352 502.941 116.219 503.046 116.114C503.151 116.009 503.284 115.957 503.446 115.957C503.607 115.957 503.741 116.009 503.845 116.114C503.95 116.219 504.003 116.352 504.003 116.514V126.553C504.003 126.714 503.95 126.848 503.845 126.952C503.741 127.057 503.607 127.11 503.446 127.11C503.284 127.11 503.151 127.057 503.046 126.952C502.941 126.848 502.889 126.714 502.889 126.553V121.969H495.92V126.553C495.92 126.714 495.868 126.848 495.763 126.952C495.658 127.057 495.525 127.11 495.363 127.11Z" fill="#005C91"/>
<path d="M145.548 135.649H491.118V133.981H145.548V135.649Z" fill="#005C91"/>
<path d="M422.875 146.492C422.253 147.483 422.253 147.483 422.253 147.483C422.253 147.483 421.556 139.12 419.239 136.345C416.921 133.572 412.753 141.317 413.613 147.488C414.687 155.192 417.412 156.709 420.548 156.095C420.548 156.095 421.353 156.133 422.285 155.604L422.875 146.492" fill="#A5542D"/>
<path d="M440.554 131.237C440.384 131.237 440.213 131.172 440.084 131.043L435.726 126.687C435.466 126.425 435.466 126.004 435.726 125.744C435.986 125.483 436.409 125.483 436.669 125.744L441.026 130.1C441.286 130.36 441.286 130.781 441.026 131.043C440.896 131.172 440.725 131.237 440.554 131.237Z" fill="#005C91"/>
<path d="M432.033 116.161C430.527 116.161 429.02 116.736 427.868 117.887C425.569 120.185 425.569 123.916 427.868 126.215C429.02 127.365 430.527 127.94 432.033 127.94C433.541 127.94 435.048 127.365 436.197 126.215C438.499 123.916 438.499 120.185 436.197 117.887C435.048 116.736 433.541 116.161 432.033 116.161ZM432.033 117.495C433.251 117.495 434.395 117.968 435.255 118.829C437.032 120.605 437.032 123.496 435.255 125.272C434.395 126.133 433.251 126.607 432.033 126.607C430.816 126.607 429.672 126.133 428.812 125.272C427.035 123.496 427.035 120.605 428.812 118.829C429.672 117.968 430.816 117.495 432.033 117.495Z" fill="#005C91"/>
<path d="M437.205 128.556C436.864 128.556 436.524 128.425 436.263 128.165L435.255 127.157C434.735 126.637 434.735 125.793 435.255 125.272C435.776 124.751 436.62 124.751 437.14 125.272L438.148 126.28C438.669 126.801 438.669 127.644 438.148 128.165C437.888 128.425 437.547 128.556 437.205 128.556" fill="#005C91"/>
<path d="M455.423 153.044C449.948 156.817 442.252 165.235 444.82 178.267C446.439 186.483 457.467 188.333 467.107 182.987C476.748 177.639 479.569 167.488 478.359 160.515C477.147 153.541 464.204 146.995 455.423 153.044Z" fill="#A5542D"/>
<path d="M458.545 199.387C458.164 199.387 457.777 199.345 457.391 199.259C454.515 198.624 452.697 195.777 453.332 192.901C454.836 186.097 454.116 183.405 454.108 183.379C454.176 183.617 454.24 183.723 454.24 183.723L464.027 179.479C464.523 180.623 465.971 185.141 463.749 195.201C463.197 197.691 460.993 199.387 458.545 199.387Z" fill="#A5542D"/>
<path d="M455.286 158.252C455.286 158.252 451.437 164.251 450.028 166.4C450.028 166.4 452.609 168.359 454.364 166.084C456.121 163.809 457.38 159.524 460.96 159.583C463.34 159.621 463 162.124 461.961 164.143C460.37 167.232 457.825 168.807 456.196 168.615C456.196 168.615 451.921 175.429 460.556 180.284C469.189 185.139 475.545 178.795 479.177 171.771C482.808 164.745 482.764 154.799 475.315 149.396C468.024 144.109 461.789 144.556 452.518 145.237C452.518 145.237 449.117 151.489 455.286 158.252" fill="#003C5E"/>
<path d="M512.957 161.848C511.632 164.971 509.952 168.993 507.447 172.768C504.993 176.571 501.776 180.095 498.193 182.631C494.655 185.231 490.804 186.848 487.656 187.847C484.487 188.813 482.029 189.211 481.028 189.381C475.84 190.241 473.773 191.803 473.536 195.96C473.427 198.011 474.107 199.555 475.696 200.493C477.277 201.419 479.765 201.752 483.115 201.16C484.405 200.936 487.544 200.277 491.567 198.701C495.56 197.103 500.463 194.481 504.721 190.524C506.845 188.564 508.847 186.349 510.499 183.936C512.139 181.52 513.561 179.004 514.587 176.472C516.739 171.437 517.536 166.556 517.752 162.896L512.957 161.848" fill="#A5542D"/>
<path d="M417.496 151.348C416.925 152.959 416.329 154.856 415.725 156.956C415.38 157.997 415.194 159.125 415.008 160.297C414.821 161.477 414.632 162.689 414.438 163.923C414.322 164.541 414.276 165.177 414.269 165.825C414.249 166.473 414.226 167.127 414.205 167.783C414.189 168.444 414.173 169.108 414.156 169.773C414.128 170.44 414.13 171.111 414.221 171.788C414.362 173.149 414.504 174.512 414.644 175.865C414.824 177.223 415.229 178.557 415.526 179.889C416.918 185.188 419.54 189.949 422.226 193.264C423.641 194.855 424.877 196.26 426.036 197.205C426.597 197.697 427.079 198.144 427.512 198.48C427.957 198.803 428.316 199.063 428.583 199.255C431.345 201.232 433.802 201.865 435.606 201.573C437.402 201.285 438.601 200.049 439.161 198.08C439.73 196.092 439.757 194.567 439.158 193.229C438.569 191.909 437.337 190.82 435.484 189.485C435.301 189.361 435.052 189.193 434.745 188.985C434.441 188.771 434.112 188.476 433.711 188.168C432.873 187.588 432.008 186.675 430.93 185.691C428.936 183.576 426.801 180.517 425.265 176.716C424.933 175.745 424.473 174.799 424.196 173.767C423.933 172.72 423.669 171.667 423.406 170.613C423.242 170.092 423.157 169.548 423.1 168.996L422.876 167.356C422.797 166.809 422.717 166.265 422.638 165.724C422.54 165.184 422.477 164.64 422.481 164.093C422.431 163 422.381 161.925 422.334 160.879C422.269 159.829 422.192 158.801 422.265 157.809C422.328 155.825 422.342 153.98 422.301 152.353L417.496 151.348" fill="#A5542D"/>
<path d="M445.684 255.695C445.684 255.695 450.977 267.676 463.129 267.676C475.281 267.676 482.507 261.563 480.533 248.739C480.533 248.739 455.452 244.46 445.684 255.695" fill="#005C91"/>
<path d="M483.447 325.633C485.224 316.485 486.412 301.512 486.268 287.941C486.265 281.163 485.885 274.735 485.463 269.604C485.029 264.473 484.46 260.629 484.18 259.048C482.739 250.879 478.909 247.741 473.46 249.585C467.975 251.429 466.375 254.607 467.692 261.985C467.943 263.408 468.647 266.864 469.436 271.624C470.212 276.383 471.163 282.412 471.96 288.889C473.691 301.821 474.977 316.464 476.576 325.551L483.447 325.633" fill="#005C91"/>
<path d="M458.189 326.68C458.585 317.096 458.028 301.783 458.205 288.249C458.268 281.481 458.522 275.175 458.897 270.272C459.268 265.361 459.765 261.901 459.962 260.528C460.461 256.937 460.435 254.723 459.573 253.28C459.141 252.58 458.502 251.929 457.729 251.232C457.336 250.861 456.978 250.393 456.59 249.911C456.194 249.431 455.748 248.931 455.228 248.435C454.706 247.937 454.184 247.512 453.628 247.188C453.074 246.853 452.492 246.631 451.834 246.631C450.474 246.625 449.144 247.183 447.937 248.205C445.553 250.231 444 253.703 443.371 258.249C443.117 260.02 442.742 264.236 442.753 269.696C442.757 275.164 443.119 281.905 443.883 288.949C445.363 303.049 448.419 318.367 451.377 327.599L458.189 326.68Z" fill="#005C91"/>
<path d="M483.447 325.633C485.224 316.485 486.412 301.512 486.268 287.941C486.265 281.163 485.885 274.735 485.463 269.604C485.029 264.473 484.46 260.629 484.18 259.048C482.739 250.879 478.909 247.741 473.46 249.585C467.975 251.429 466.375 254.607 467.692 261.985C467.943 263.408 468.647 266.864 469.436 271.624C470.212 276.383 471.163 282.412 471.96 288.889C473.691 301.821 474.977 316.464 476.576 325.551L483.447 325.633" fill="#005C91"/>
<path d="M484.561 261.5C484.412 260.44 484.277 259.599 484.18 259.048C483.524 255.328 482.366 252.664 480.793 251.027C480.74 250.288 480.654 249.527 480.533 248.739C480.533 248.739 467.282 246.483 456.29 249.564C455.969 249.192 455.625 248.813 455.228 248.435C454.706 247.937 454.184 247.512 453.628 247.188C453.074 246.853 452.492 246.631 451.834 246.631C450.474 246.625 449.144 247.183 447.937 248.205C445.553 250.231 444 253.703 443.37 258.249C443.286 258.841 443.188 259.727 443.094 260.819C459.717 265.416 475.246 263.551 484.561 261.5" fill="#004973"/>
<path d="M453.225 190.184C454.667 190.411 472.468 196.993 487.06 184.216C487.06 184.216 490.975 193.368 492.071 203.217C492.071 203.217 485.461 207.001 479.461 206.847C479.461 206.847 478.796 236.88 491.929 255.485C491.929 255.485 464.568 266.065 435.748 255.485C435.748 255.485 443.832 232.523 443.283 206.488C443.283 206.488 432.033 205.184 425.349 198.62C425.349 198.62 430.009 186.009 435.892 182.523C435.892 182.523 447.736 189.319 453.225 190.184" fill="#FF595F"/>
<path d="M479.461 206.847C485.461 207.001 492.071 203.217 492.071 203.217C492.071 203.217 484.067 206.323 476.732 204.169C476.732 204.169 475.065 240.063 491.929 255.485C478.796 236.88 479.461 206.847 479.461 206.847Z" fill="#CC3F44"/>
<path d="M447.867 205.031C431.72 203.74 425.349 198.62 425.349 198.62C432.033 205.184 443.283 206.488 443.283 206.488C443.832 232.523 435.748 255.485 435.748 255.485C447.525 239.632 447.867 205.031 447.867 205.031" fill="#CC3F44"/>
<path d="M513.077 166.004C513.077 166.004 509.7 164.733 511.115 159.461C512.528 154.191 512.036 152.568 511.584 151.465C511.132 150.361 513.711 149.521 514.317 153.471C514.924 157.42 514.924 157.42 514.924 157.42C514.924 157.42 518.883 150.02 522.109 148.392C525.336 146.764 523.703 154.819 522.621 160.403C521.537 165.987 515.713 167.812 513.077 166.004" fill="#A5542D"/>
<path d="M479.907 322.947C477.955 323.092 475.287 323.489 473.408 327.313C472.765 328.619 472.735 329.805 472.971 330.8C473.413 332.664 475.157 333.929 477.075 333.929H483.955C486.548 333.929 488.649 331.609 488.161 329.063C488.049 328.48 487.853 327.888 487.539 327.313C485.863 324.249 482.699 322.737 479.907 322.947" fill="#003C5E"/>
<path d="M454.388 321.88C452.449 322.147 449.811 322.708 448.172 326.64C447.612 327.983 447.653 329.168 447.951 330.147C448.508 331.981 450.327 333.137 452.241 333.019L459.107 332.593C461.695 332.433 463.649 329.987 463.005 327.475C462.859 326.901 462.625 326.321 462.276 325.768C460.416 322.812 457.163 321.499 454.388 321.88Z" fill="#003C5E"/>
<path d="M217.723 310.889C217.723 311.508 217.216 312.013 216.597 312.013H205.739C205.12 312.013 204.615 311.508 204.615 310.889C204.615 310.271 205.12 309.764 205.739 309.764H216.597C217.216 309.764 217.723 310.271 217.723 310.889Z" fill="#003757"/>
<path d="M210.384 314.611H192.017C190.712 314.611 189.644 313.544 189.644 312.24V309.539C189.644 308.235 190.712 307.167 192.017 307.167H210.384C211.688 307.167 212.756 308.235 212.756 309.539V312.24C212.756 313.544 211.688 314.611 210.384 314.611Z" fill="#70C6DB"/>
<path d="M339.955 338.256L323.637 332.709C319.761 331.392 317.669 327.143 318.987 323.269L324.535 306.951C325.853 303.077 330.1 300.984 333.975 302.301L350.293 307.849C354.168 309.167 356.26 313.415 354.943 317.289L349.395 333.608C348.077 337.481 343.829 339.575 339.955 338.256" fill="#BAF1FF"/>
<path d="M393.065 338.256L376.748 332.709C372.872 331.392 370.78 327.143 372.097 323.269L377.645 306.951C378.963 303.077 383.211 300.984 387.084 302.301L403.404 307.849C407.277 309.167 409.369 313.415 408.053 317.289L402.505 333.608C401.188 337.481 396.94 339.575 393.065 338.256" fill="#FF9CBD"/>
<path d="M485.844 565.929V499.699H572.209V565.929H485.844Z" fill="#005C91"/>
<path d="M508.845 485.303L485.844 499.699H572.209L549.208 485.303H508.845" fill="#003C5E"/>
<path d="M508.845 485.303V499.699H549.208V485.303H508.845Z" fill="#133447"/>
<path d="M485.844 499.699L498.28 515.256H559.119L572.209 499.699H485.844" fill="#00CFFF"/>
<path d="M549.208 485.303L572.209 492.501L590.207 504.804L572.209 499.699L549.208 485.303Z" fill="#00CFFF"/>
<path d="M508.845 485.303L483.779 492.501L465.78 504.804L485.844 499.699L508.845 485.303Z" fill="#00CFFF"/>
<path d="M312.14 605.281H312.141C312.101 605.085 312.068 604.889 312.044 604.697C312.068 604.892 312.101 605.088 312.14 605.281Z" fill="#B8B8B8"/>
<path d="M312.855 607.288L312.841 607.259L312.855 607.288Z" fill="#B8B8B8"/>
<path d="M312.787 607.153L312.732 607.043L312.787 607.153Z" fill="#B8B8B8"/>
<path d="M312.34 606.055C312.447 606.388 312.574 606.71 312.721 607.02C312.57 606.704 312.447 606.381 312.343 606.055H312.34Z" fill="#B8B8B8"/>
</svg>
