<svg width="596" height="541" viewBox="0 0 596 541" fill="none" xmlns="http://www.w3.org/2000/svg">
<path d="M510.385 384.813L507.972 375.275L128.688 471.255L131.101 480.795L510.385 384.813" fill="#3575A8"/>
<path d="M145.436 477.167L142.019 463.66C141.837 462.95 141.109 462.515 140.399 462.695C139.688 462.874 139.252 463.603 139.433 464.313L142.851 477.821L145.436 477.167" fill="#E5E5E5"/>
<path d="M156.656 474.328L155.037 467.929C154.896 467.374 154.345 467.045 153.789 467.187C153.233 467.327 152.892 467.881 153.033 468.438L154.652 474.835L156.656 474.328" fill="#E5E5E5"/>
<path d="M168.172 471.415L166.553 465.016C166.413 464.46 165.862 464.132 165.305 464.272C164.75 464.413 164.409 464.967 164.55 465.523L166.169 471.92L168.172 471.415" fill="#E5E5E5"/>
<path d="M179.987 468.424L176.569 454.917C176.389 454.205 175.66 453.771 174.949 453.951C174.225 454.135 173.804 454.86 173.984 455.571L177.401 469.079L179.987 468.424" fill="#E5E5E5"/>
<path d="M191.206 465.585L189.588 459.187C189.446 458.631 188.884 458.307 188.328 458.446C187.784 458.584 187.444 459.139 187.584 459.695L189.202 466.091L191.206 465.585Z" fill="#E5E5E5"/>
<path d="M202.723 462.67L201.104 456.272C200.964 455.716 200.4 455.392 199.844 455.532C199.301 455.669 198.96 456.223 199.101 456.779L200.72 463.177L202.723 462.67" fill="#E5E5E5"/>
<path d="M214.525 459.684L211.107 446.176C210.927 445.465 210.197 445.032 209.488 445.211C208.776 445.391 208.341 446.12 208.523 446.831L211.94 460.339L214.525 459.684" fill="#E5E5E5"/>
<path d="M225.745 456.845L224.125 450.446C223.985 449.891 223.435 449.563 222.879 449.703C222.323 449.844 221.995 450.395 222.135 450.951L223.753 457.35L225.745 456.845Z" fill="#E5E5E5"/>
<path d="M237.261 453.929L235.643 447.532C235.501 446.976 234.951 446.648 234.395 446.789C233.839 446.929 233.511 447.48 233.652 448.035L235.271 454.433L237.261 453.929" fill="#E5E5E5"/>
<path d="M249.076 450.94L245.659 437.434C245.477 436.723 244.749 436.288 244.039 436.468C243.327 436.646 242.892 437.376 243.073 438.087L246.491 451.595L249.076 450.94Z" fill="#E5E5E5"/>
<path d="M260.296 448.101L258.676 441.703C258.536 441.146 257.972 440.823 257.429 440.96C256.873 441.1 256.532 441.655 256.673 442.21L258.292 448.608L260.296 448.101Z" fill="#E5E5E5"/>
<path d="M271.812 445.188L270.195 438.789C270.053 438.233 269.489 437.908 268.947 438.045C268.391 438.187 268.049 438.74 268.191 439.296L269.808 445.695L271.812 445.188Z" fill="#E5E5E5"/>
<path d="M283.613 442.2L280.195 428.693C280.016 427.981 279.3 427.544 278.576 427.728C277.864 427.908 277.431 428.638 277.611 429.348L281.028 442.855L283.613 442.2" fill="#E5E5E5"/>
<path d="M294.847 439.359L293.227 432.96C293.085 432.404 292.524 432.08 291.968 432.22C291.424 432.357 291.084 432.912 291.224 433.467L292.843 439.865L294.847 439.359Z" fill="#E5E5E5"/>
<path d="M306.363 436.444L304.745 430.045C304.604 429.489 304.04 429.164 303.484 429.305C302.928 429.445 302.6 429.996 302.741 430.552L304.361 436.951L306.363 436.444Z" fill="#E5E5E5"/>
<path d="M318.164 433.457L314.747 419.95C314.567 419.239 313.839 418.805 313.127 418.984C312.417 419.164 311.981 419.893 312.161 420.604L315.58 434.112L318.164 433.457" fill="#E5E5E5"/>
<path d="M329.384 430.619L327.765 424.22C327.625 423.664 327.074 423.336 326.518 423.476C325.962 423.617 325.621 424.17 325.761 424.727L327.38 431.125L329.384 430.619" fill="#E5E5E5"/>
<path d="M340.901 427.703L339.281 421.305C339.14 420.751 338.591 420.42 338.035 420.562C337.479 420.701 337.139 421.256 337.279 421.812L338.897 428.211L340.901 427.703" fill="#E5E5E5"/>
<path d="M352.715 424.713L349.297 411.205C349.117 410.495 348.389 410.062 347.677 410.241C346.953 410.424 346.532 411.15 346.712 411.862L350.131 425.368L352.715 424.713" fill="#E5E5E5"/>
<path d="M363.935 421.875L362.316 415.476C362.176 414.92 361.612 414.595 361.069 414.733C360.513 414.874 360.172 415.427 360.312 415.983L361.932 422.381L363.935 421.875" fill="#E5E5E5"/>
<path d="M375.453 418.96L373.833 412.562C373.693 412.007 373.129 411.681 372.573 411.821C372.029 411.96 371.689 412.513 371.829 413.069L373.449 419.468L375.453 418.96" fill="#E5E5E5"/>
<path d="M387.253 415.975L383.836 402.467C383.655 401.755 382.94 401.317 382.216 401.501C381.505 401.681 381.071 402.409 381.251 403.12L384.668 416.628L387.253 415.975Z" fill="#E5E5E5"/>
<path d="M398.485 413.132L396.867 406.733C396.727 406.177 396.163 405.852 395.607 405.992C395.051 406.133 394.723 406.685 394.863 407.24L396.481 413.639L398.485 413.132" fill="#E5E5E5"/>
<path d="M409.989 410.22L408.371 403.821C408.231 403.265 407.68 402.937 407.124 403.079C406.568 403.219 406.24 403.769 406.38 404.325L408 410.724L409.989 410.22" fill="#E5E5E5"/>
<path d="M421.805 407.231L418.386 393.723C418.206 393.012 417.477 392.579 416.766 392.757C416.056 392.937 415.621 393.667 415.801 394.377L419.218 407.884L421.805 407.231" fill="#E5E5E5"/>
<path d="M433.025 404.391L431.405 397.993C431.264 397.437 430.713 397.109 430.157 397.251C429.601 397.391 429.26 397.944 429.401 398.5L431.021 404.899L433.025 404.391Z" fill="#E5E5E5"/>
<path d="M444.54 401.476L442.921 395.079C442.781 394.524 442.217 394.199 441.675 394.335C441.12 394.476 440.777 395.031 440.917 395.587L442.537 401.983L444.54 401.476" fill="#E5E5E5"/>
<path d="M456.356 398.487L452.937 384.979C452.757 384.268 452.028 383.835 451.317 384.015C450.593 384.197 450.172 384.923 450.352 385.635L453.771 399.141L456.356 398.487Z" fill="#E5E5E5"/>
<path d="M467.575 395.648L465.956 389.251C465.815 388.695 465.251 388.368 464.695 388.509C464.152 388.647 463.811 389.2 463.952 389.756L465.572 396.155L467.575 395.648Z" fill="#E5E5E5"/>
<path d="M479.092 392.733L477.472 386.335C477.332 385.78 476.769 385.455 476.212 385.595C475.656 385.736 475.329 386.287 475.471 386.843L477.088 393.241L479.092 392.733Z" fill="#E5E5E5"/>
<path d="M490.893 389.748L487.475 376.24C487.296 375.529 486.567 375.093 485.856 375.275C485.144 375.455 484.709 376.183 484.889 376.893L488.307 390.401L490.893 389.748" fill="#E5E5E5"/>
<path d="M247.952 56.6027L387.293 0.246695L414.909 68.5267L275.568 124.883L247.952 56.6027Z" fill="white"/>
<path d="M372.145 51.0107L392.455 42.7974L400.668 63.1067L380.36 71.32L372.145 51.0107Z" fill="#B2D1FA"/>
<path d="M360.969 23.376L381.277 15.1627L389.491 35.4707L369.183 43.684L360.969 23.376Z" fill="#A7C5EB"/>
<path d="M346.136 61.532L366.443 53.3173L374.656 73.6253L354.349 81.8387L346.136 61.532" fill="#7EA6D7"/>
<path d="M334.958 33.8947L355.265 25.6813L363.48 45.9907L343.172 54.204L334.958 33.8947" fill="#698AB3"/>
<path d="M308.947 44.416L329.255 36.2013L337.469 56.5107L317.16 64.724L308.947 44.416Z" fill="#FA8D34"/>
<path d="M294.113 82.5707L314.421 74.3573L322.636 94.6653L302.327 102.879L294.113 82.5707Z" fill="#FAC474"/>
<path d="M282.936 54.9347L303.245 46.7214L311.459 67.0307L291.149 75.244L282.936 54.9347Z" fill="#FAB44E"/>
<path d="M18.7188 83.972C19.9437 83.9747 21.0213 81.8934 22.2765 81.512L20.0443 73.5894C19.6855 73.7 19.3776 73.9734 19.3104 74.364L17.7412 83.5374C18.0391 83.7907 18.3557 83.972 18.7188 83.972" fill="#89B5EB"/>
<path d="M22.3051 81.5C23.5729 81.1427 25.6026 82.3827 26.6546 81.736C26.9562 81.552 27.1322 81.244 27.253 80.884L21.1302 73.8534C20.8562 73.5387 20.4218 73.4734 20.0442 73.5894L22.2765 81.512C22.2863 81.5094 22.2958 81.5027 22.3051 81.5Z" fill="#6299DE"/>
<path d="M89.4612 319.976L101.677 316.535L39.1259 94.5173C35.5321 97.088 31.5811 98.9307 27.5056 100.073L89.4612 319.976Z" fill="#6299DE"/>
<path d="M14.688 101.38L77.2453 323.419L89.4613 319.976L27.5057 100.073C23.2803 101.259 18.9213 101.691 14.688 101.38" fill="#89B5EB"/>
<path d="M39.1099 94.4987L39.126 94.5173L39.1197 94.496L39.1099 94.4987Z" fill="#51395D"/>
<path d="M27.5057 100.073L22.2765 81.512C21.0213 81.8933 19.9437 83.9747 18.7188 83.972C18.3557 83.972 18.0391 83.7907 17.7412 83.5373L14.688 101.38C18.9213 101.691 23.2803 101.259 27.5057 100.073Z" fill="#F9EAD1"/>
<path d="M39.1097 94.4987L27.2529 80.884C27.1321 81.244 26.9561 81.552 26.6545 81.736C25.6025 82.3827 23.5728 81.1427 22.305 81.5C22.305 81.5 22.2862 81.5093 22.2764 81.512L27.5056 100.073C31.581 98.9307 35.5321 97.088 39.1258 94.5173L39.1097 94.4987Z" fill="#FEE4AF"/>
<path d="M39.1099 94.4987L39.126 94.5173L39.1099 94.4987Z" fill="#B49FC1"/>
<path d="M503.772 417.845L65.9785 375.307L97.5652 50.24L535.359 92.7799L503.772 417.845" fill="#E5E5E5"/>
<path d="M490.115 404.611H50.2588V78.0133H490.115V404.611Z" fill="white"/>
<path d="M240.101 335.295L238.255 359.601H302.119L300.272 335.295H240.101Z" fill="#E5E5E5"/>
<path d="M299.259 321.951H241.113L240.101 335.295H300.272L299.259 321.951Z" fill="#B2B2B2"/>
<path d="M318.204 367.941H222.169V361.476C222.169 359.255 223.968 357.457 226.188 357.457H314.187C316.405 357.457 318.204 359.255 318.204 361.476V367.941" fill="#CBCBCB"/>
<path d="M268.995 329.099H411.456C416.217 329.099 420.077 325.24 420.077 320.477V300.027H298.068L268.995 329.099" fill="#CBCBCB"/>
<path d="M120.297 300.027V320.477C120.297 325.24 124.156 329.099 128.917 329.099H268.995L298.068 300.027H120.297Z" fill="#E5E5E5"/>
<path d="M235.59 132.267L213.771 154.087H407.685V132.267H235.59Z" fill="#89B5EB"/>
<path d="M130.787 237.071V288.104H183.188V184.669L130.787 237.071Z" fill="#B2D1FA"/>
<path d="M183.188 184.669V288.104H407.685V154.087H213.771L183.188 184.669" fill="#FAC474"/>
<path d="M213.771 154.087L235.591 132.267H183.188V154.087H213.771Z" fill="#7EA6D7"/>
<path d="M183.188 132.267H130.787V154.087H183.188V132.267Z" fill="#7EA6D7"/>
<path d="M183.188 154.087H130.787V237.071L183.188 184.669V154.087Z" fill="#A7C5EB"/>
<path d="M183.188 184.669L213.771 154.087H183.188V184.669Z" fill="#FAB44E"/>
<path d="M229.129 171.055H194.129V161.477H229.129V171.055Z" fill="#FA8D34"/>
<path d="M284.963 171.055H249.961V161.477H284.963V171.055" fill="#FA8D34"/>
<path d="M340.795 171.055H305.795V161.477H340.795V171.055Z" fill="#FA8D34"/>
<path d="M396.628 171.055H361.628V161.477H396.628V171.055Z" fill="#FA8D34"/>
<path d="M396.628 288.104H194.129V178.663H396.628V288.104Z" fill="white"/>
<path d="M264.852 147.588H138.296V137.811H264.852V147.588Z" fill="#698AB3"/>
<path d="M382.185 277.365H310.728V192.033H382.185V277.365" fill="#698AB3"/>
<path d="M173.296 195.367H138.296V192.033H173.296V195.367Z" fill="#698AB3"/>
<path d="M173.296 201.811H138.296V198.477H173.296V201.811Z" fill="#698AB3"/>
<path d="M173.296 208.256H138.296V204.921H173.296V208.256Z" fill="#698AB3"/>
<path d="M173.296 214.7H138.296V211.367H173.296V214.7Z" fill="#698AB3"/>
<path d="M173.296 221.143H138.296V217.809H173.296V221.143Z" fill="#698AB3"/>
<path d="M173.296 227.588H138.296V224.255H173.296V227.588Z" fill="#698AB3"/>
<path d="M173.296 234.032H138.296V230.699H173.296V234.032Z" fill="#698AB3"/>
<path d="M173.296 240.476H138.296V237.143H173.296V240.476Z" fill="#698AB3"/>
<path d="M173.296 246.921H138.296V243.588H173.296V246.921Z" fill="#698AB3"/>
<path d="M173.296 253.365H138.296V250.032H173.296V253.365Z" fill="#698AB3"/>
<path d="M173.296 259.809H138.296V256.476H173.296V259.809Z" fill="#698AB3"/>
<path d="M159.363 266.255H138.296V262.921H159.363V266.255Z" fill="#698AB3"/>
<path d="M345.572 234.725H317.464V232.041H345.572V234.725Z" fill="#57779E"/>
<path d="M377.321 234.725H349.213V232.041H377.321V234.725Z" fill="#57779E"/>
<path d="M345.572 239.309H317.464V236.625H345.572V239.309Z" fill="#57779E"/>
<path d="M377.321 239.309H349.213V236.625H377.321V239.309Z" fill="#57779E"/>
<path d="M345.572 243.892H317.464V241.208H345.572V243.892Z" fill="#57779E"/>
<path d="M377.321 243.892H349.213V241.208H377.321V243.892Z" fill="#57779E"/>
<path d="M345.572 248.476H317.464V245.792H345.572V248.476Z" fill="#57779E"/>
<path d="M377.321 248.476H349.213V245.792H377.321V248.476Z" fill="#57779E"/>
<path d="M345.572 253.059H317.464V250.375H345.572V253.059Z" fill="#57779E"/>
<path d="M377.321 253.059H349.213V250.375H377.321V253.059Z" fill="#57779E"/>
<path d="M345.572 257.643H317.464V254.959H345.572V257.643Z" fill="#57779E"/>
<path d="M377.321 257.643H349.213V254.959H377.321V257.643Z" fill="#57779E"/>
<path d="M345.572 262.225H317.464V259.541H345.572V262.225Z" fill="#57779E"/>
<path d="M377.321 262.225H349.213V259.541H377.321V262.225Z" fill="#57779E"/>
<path d="M339.328 266.809H317.464V264.125H339.328V266.809Z" fill="#57779E"/>
<path d="M361.88 266.809H349.213V264.125H361.88V266.809Z" fill="#57779E"/>
<path d="M321.584 202.745C317.079 207.251 317.079 214.556 321.584 219.061L337.899 202.745C333.393 198.24 326.088 198.24 321.584 202.745Z" fill="#89B5EB"/>
<path d="M337.899 202.745L321.584 219.061C326.088 223.567 333.393 223.567 337.899 219.06C342.404 214.555 342.404 207.251 337.899 202.745" fill="#79A4D9"/>
<path d="M304.631 277.365H205.741V272.629H304.631V277.365Z" fill="#FAB44E"/>
<path d="M249.961 195.367H205.741V192.033H249.961V195.367Z" fill="#FAC474"/>
<path d="M300.669 195.367H256.448V192.033H300.669V195.367Z" fill="#FAC474"/>
<path d="M249.961 201.033H205.741V197.7H249.961V201.033Z" fill="#FAC474"/>
<path d="M300.669 201.033H256.448V197.7H300.669V201.033Z" fill="#FAC474"/>
<path d="M249.961 206.7H205.741V203.367H249.961V206.7Z" fill="#FAC474"/>
<path d="M300.669 206.7H256.448V203.367H300.669V206.7Z" fill="#FAC474"/>
<path d="M249.961 212.367H205.741V209.033H249.961V212.367Z" fill="#FAC474"/>
<path d="M300.669 212.367H256.448V209.033H300.669V212.367Z" fill="#FAC474"/>
<path d="M249.961 218.033H205.741V214.7H249.961V218.033Z" fill="#FAC474"/>
<path d="M300.669 218.033H256.448V214.7H300.669V218.033Z" fill="#FAC474"/>
<path d="M249.961 223.7H205.741V220.367H249.961V223.7Z" fill="#FAC474"/>
<path d="M300.669 223.7H256.448V220.367H300.669V223.7Z" fill="#FAC474"/>
<path d="M249.961 229.367H205.741V226.033H249.961V229.367Z" fill="#FAC474"/>
<path d="M300.669 229.367H256.448V226.033H300.669V229.367Z" fill="#FAC474"/>
<path d="M249.961 235.033H205.741V231.7H249.961V235.033Z" fill="#FAC474"/>
<path d="M300.669 235.033H256.448V231.7H300.669V235.033Z" fill="#FAC474"/>
<path d="M249.961 240.701H205.741V237.368H249.961V240.701Z" fill="#FAC474"/>
<path d="M300.669 240.701H256.448V237.368H300.669V240.701Z" fill="#FAC474"/>
<path d="M249.961 246.368H205.741V243.035H249.961V246.368Z" fill="#FAC474"/>
<path d="M300.669 246.368H256.448V243.035H300.669V246.368Z" fill="#FAC474"/>
<path d="M249.961 252.035H205.741V248.701H249.961V252.035Z" fill="#FAC474"/>
<path d="M300.669 252.035H256.448V248.701H300.669V252.035Z" fill="#FAC474"/>
<path d="M249.961 257.701H205.741V254.368H249.961V257.701Z" fill="#FAC474"/>
<path d="M300.669 257.701H256.448V254.368H300.669V257.701Z" fill="#FAC474"/>
<path d="M231.98 263.368H205.741V260.035H231.98V263.368Z" fill="#FAC474"/>
<path d="M283.485 263.368H256.448V260.035H283.485V263.368Z" fill="#FAC474"/>
<path d="M436.535 174.023C419.269 199.748 384.417 206.607 358.692 189.34" stroke="#ED5845" stroke-width="6.66667" stroke-miterlimit="10" stroke-linecap="round" stroke-linejoin="round"/>
<path d="M356.719 188.016L359.86 203.977" stroke="#ED5845" stroke-width="6.66667" stroke-miterlimit="10" stroke-linecap="round" stroke-linejoin="round"/>
<path d="M356.719 188.016L372.681 184.875" stroke="#ED5845" stroke-width="6.66667" stroke-miterlimit="10" stroke-linecap="round" stroke-linejoin="round"/>
<path d="M87.9292 145.457C109.723 123.436 145.244 123.251 167.265 145.045" stroke="#ED5845" stroke-width="6.66667" stroke-miterlimit="10" stroke-linecap="round" stroke-linejoin="round"/>
<path d="M168.954 146.716L168.869 130.448" stroke="#ED5845" stroke-width="6.66667" stroke-miterlimit="10" stroke-linecap="round" stroke-linejoin="round"/>
<path d="M168.955 146.716L152.687 146.801" stroke="#ED5845" stroke-width="6.66667" stroke-miterlimit="10" stroke-linecap="round" stroke-linejoin="round"/>
<path d="M174.736 154.087L184.296 163.647" stroke="#ED5845" stroke-width="6.66667" stroke-miterlimit="10" stroke-linecap="round" stroke-linejoin="round"/>
<path d="M184.296 154.087L174.736 163.647" stroke="#ED5845" stroke-width="6.66667" stroke-miterlimit="10" stroke-linecap="round" stroke-linejoin="round"/>
<path d="M159.471 270.217L169.031 279.777" stroke="#ED5845" stroke-width="6.66667" stroke-miterlimit="10" stroke-linecap="round" stroke-linejoin="round"/>
<path d="M179.775 270.217L170.215 279.777" stroke="#ED5845" stroke-width="6.66667" stroke-miterlimit="10" stroke-linecap="round" stroke-linejoin="round"/>
<path d="M334.292 176.883L343.852 186.444" stroke="#ED5845" stroke-width="6.66667" stroke-miterlimit="10" stroke-linecap="round" stroke-linejoin="round"/>
<path d="M354.595 176.883L345.035 186.444" stroke="#ED5845" stroke-width="6.66667" stroke-miterlimit="10" stroke-linecap="round" stroke-linejoin="round"/>
<path d="M100.774 166.265H65.8171C64.1798 166.265 62.8518 164.937 62.8518 163.3C62.8518 161.661 64.1798 160.335 65.8171 160.335H100.774C102.413 160.335 103.741 161.661 103.741 163.3C103.741 164.937 102.413 166.265 100.774 166.265Z" fill="#ED5845"/>
<path d="M100.774 176.988H65.8171C64.1798 176.988 62.8518 175.66 62.8518 174.023C62.8518 172.384 64.1798 171.056 65.8171 171.056H100.774C102.413 171.056 103.741 172.384 103.741 174.023C103.741 175.66 102.413 176.988 100.774 176.988Z" fill="#ED5845"/>
<path d="M100.774 187.711H65.8171C64.1798 187.711 62.8518 186.383 62.8518 184.744C62.8518 183.107 64.1798 181.779 65.8171 181.779H100.774C102.413 181.779 103.741 183.107 103.741 184.744C103.741 186.383 102.413 187.711 100.774 187.711Z" fill="#ED5845"/>
<path d="M88.0918 198.432H65.8171C64.1798 198.432 62.8518 197.105 62.8518 195.467C62.8518 193.829 64.1798 192.501 65.8171 192.501H88.0918C89.7305 192.501 91.0585 193.829 91.0585 195.467C91.0585 197.105 89.7305 198.432 88.0918 198.432Z" fill="#ED5845"/>
<path d="M468.774 130.06H433.817C432.18 130.06 430.852 128.731 430.852 127.093C430.852 125.455 432.18 124.128 433.817 124.128H468.774C470.413 124.128 471.741 125.455 471.741 127.093C471.741 128.731 470.413 130.06 468.774 130.06Z" fill="#ED5845"/>
<path d="M468.774 140.783H433.817C432.18 140.783 430.852 139.453 430.852 137.816C430.852 136.177 432.18 134.849 433.817 134.849H468.774C470.413 134.849 471.741 136.177 471.741 137.816C471.741 139.453 470.413 140.783 468.774 140.783Z" fill="#ED5845"/>
<path d="M468.774 151.504H433.817C432.18 151.504 430.852 150.176 430.852 148.537C430.852 146.9 432.18 145.572 433.817 145.572H468.774C470.413 145.572 471.741 146.9 471.741 148.537C471.741 150.176 470.413 151.504 468.774 151.504Z" fill="#ED5845"/>
<path d="M456.092 162.227H433.817C432.18 162.227 430.852 160.899 430.852 159.26C430.852 157.623 432.18 156.295 433.817 156.295H456.092C457.73 156.295 459.058 157.623 459.058 159.26C459.058 160.899 457.73 162.227 456.092 162.227Z" fill="#ED5845"/>
<path d="M274.595 361.993C248.883 344.705 242.053 309.848 259.34 284.136" stroke="#ED5845" stroke-width="6.66667" stroke-miterlimit="10" stroke-linecap="round" stroke-linejoin="round"/>
<path d="M260.667 282.164L244.701 285.292" stroke="#ED5845" stroke-width="6.66667" stroke-miterlimit="10" stroke-linecap="round" stroke-linejoin="round"/>
<path d="M260.667 282.164L263.794 298.129" stroke="#ED5845" stroke-width="6.66667" stroke-miterlimit="10" stroke-linecap="round" stroke-linejoin="round"/>
<path d="M356.571 367.705H288.375C286.737 367.705 285.409 366.377 285.409 364.741V364.74C285.409 363.103 286.737 361.775 288.375 361.775H356.571C358.208 361.775 359.536 363.103 359.536 364.74V364.741C359.536 366.377 358.208 367.705 356.571 367.705" fill="#ED5845"/>
<path d="M356.571 378.428H288.375C286.737 378.428 285.409 377.1 285.409 375.463C285.409 373.824 286.737 372.496 288.375 372.496H356.571C358.208 372.496 359.536 373.824 359.536 375.463C359.536 377.1 358.208 378.428 356.571 378.428" fill="#ED5845"/>
<path d="M319.507 389.151H288.375C286.737 389.151 285.409 387.823 285.409 386.185C285.409 384.547 286.737 383.219 288.375 383.219H319.507C321.144 383.219 322.472 384.547 322.472 386.185C322.472 387.823 321.144 389.151 319.507 389.151Z" fill="#ED5845"/>
<path d="M164.3 346.483H77.1506C75.5133 346.483 74.1853 345.156 74.1853 343.519C74.1853 341.88 75.5133 340.552 77.1506 340.552H164.3C165.939 340.552 167.265 341.88 167.265 343.519C167.265 345.156 165.939 346.483 164.3 346.483Z" fill="#ED5845"/>
<path d="M164.3 357.205H77.1506C75.5133 357.205 74.1853 355.877 74.1853 354.24C74.1853 352.601 75.5133 351.275 77.1506 351.275H164.3C165.939 351.275 167.265 352.601 167.265 354.24C167.265 355.877 165.939 357.205 164.3 357.205Z" fill="#ED5845"/>
<path d="M345.175 453.17C340.867 455.916 339.599 461.635 342.345 465.941L345.899 471.52C348.613 475.78 354.232 477.052 358.523 474.424L366.2 439.772L345.175 453.17Z" fill="#3575A8"/>
<path d="M14.2029 424.596L76.1812 424.519L76.1212 379.953L14.1436 380.032L14.2029 424.596" fill="#A5542D"/>
<path d="M73.7359 303.133L15.8562 303.155C7.27855 303.159 0.262958 310.248 0.267092 318.908L0.286818 368.845C0.291618 381.42 10.4863 391.704 22.9395 391.699L73.7719 391.68C82.3492 391.677 89.3639 384.588 89.3599 375.925L89.3372 318.872C89.3332 310.212 82.3132 303.129 73.7359 303.133" fill="#A5542D"/>
<path d="M134.689 297.211C140.296 301.633 141.417 309.6 137.243 315.359L91.516 386.224C86.8826 392.637 76.896 395.788 69.2266 390.497C59.0541 383.48 62.1355 371.507 66.6 365.483L115.344 299.719C119.899 293.62 128.688 292.479 134.689 297.211" fill="#A5542D"/>
<path d="M9.15926 331.585H9.15872C4.23112 331.585 0.236328 327.589 0.236328 322.663V295.537C0.236328 290.611 4.23112 286.616 9.15872 286.616H9.15926C14.0869 286.616 18.0817 290.611 18.0817 295.537V322.663C18.0817 327.589 14.0869 331.585 9.15926 331.585Z" fill="#A5542D"/>
<path d="M33.0045 327.052C28.0763 327.052 24.0815 323.057 24.0815 318.129V285.569C24.0815 280.641 28.0763 276.645 33.0045 276.645C37.9326 276.645 41.9274 280.641 41.9274 285.569V318.129C41.9274 323.057 37.9326 327.052 33.0045 327.052Z" fill="#A5542D"/>
<path d="M56.5213 327.052C51.5937 327.052 47.5989 323.057 47.5989 318.129V283.335C47.5989 278.407 51.5937 274.412 56.5213 274.412C61.4489 274.412 65.4439 278.407 65.4439 283.335V318.129C65.4439 323.057 61.4489 327.052 56.5213 327.052Z" fill="#A5542D"/>
<path d="M80.4373 328.411C75.5093 328.411 71.5146 324.416 71.5146 319.487V231.596C71.5146 226.669 75.5093 222.675 80.4373 222.675C85.3653 222.675 89.36 226.669 89.36 231.596V319.487C89.36 324.416 85.3653 328.411 80.4373 328.411" fill="#A5542D"/>
<path d="M80.4374 439.124V408.883H38.3625L68.6027 439.124H80.4374Z" fill="white"/>
<path d="M38.3624 408.883H10.2129V439.124H68.6025L38.3624 408.883Z" fill="#F1F1F1"/>
<path d="M28.8046 421.741H1.28955V540.56H89.3599V421.741H28.8046Z" fill="#12384A"/>
<path d="M488.733 301.957C486.646 309.453 478.878 313.84 471.381 311.753L425.857 299.088C418.36 297.003 413.972 289.235 416.058 281.737C418.144 274.24 425.913 269.853 433.41 271.939L478.936 284.605C486.432 286.692 490.818 294.46 488.733 301.957Z" fill="#FBA67B"/>
<path d="M384.767 329.317C380.095 325.377 379.504 318.397 383.444 313.725L417.815 272.983C421.755 268.311 428.737 267.719 433.408 271.66C438.08 275.6 438.671 282.583 434.731 287.253L400.36 327.996C396.419 332.667 389.437 333.259 384.767 329.317Z" fill="#FBA67B"/>
<path d="M553.412 380.789L509.46 424.487L437.339 352.281L485.603 280.163L553.412 380.789Z" fill="#A5542D"/>
<path d="M516.849 437.896L495.467 416.512L525.217 386.76V429.528L516.849 437.896Z" fill="white"/>
<path d="M525.217 386.76L545.121 366.856L566.505 388.24L525.217 429.528V386.76Z" fill="#F1F1F1"/>
<path d="M560.524 369.639L541.068 389.093L498.248 431.913L607.204 540.808L669.478 478.532L560.524 369.639Z" fill="#12384A"/>
<path d="M488.733 292.624C486.646 300.12 478.878 304.507 471.381 302.42L425.857 289.755C418.36 287.669 413.972 279.901 416.058 272.404C418.144 264.907 425.913 260.52 433.41 262.605L478.936 275.272C486.432 277.359 490.818 285.127 488.733 292.624Z" fill="#A5542D"/>
<path d="M376.581 329.464C371.909 325.523 371.316 318.541 375.257 313.869L416.595 264.869C420.535 260.199 427.516 259.607 432.188 263.547C436.859 267.487 437.451 274.469 433.511 279.141L392.173 328.141C388.233 332.811 381.251 333.404 376.581 329.464" fill="#A5542D"/>
<path d="M337.54 356.124C337.429 354.904 335.257 354.023 334.762 352.809L327.08 355.761C327.223 356.108 327.524 356.389 327.917 356.42L337.197 357.139C337.422 356.817 337.573 356.485 337.54 356.124" fill="#ED2A11"/>
<path d="M334.748 352.781C334.275 351.551 335.323 349.416 334.583 348.427C334.369 348.144 334.048 347.997 333.679 347.911L327.243 354.656C326.955 354.957 326.928 355.396 327.08 355.761L334.763 352.809C334.759 352.799 334.751 352.791 334.748 352.781" fill="#C4230E"/>
<path d="M566.02 263.927L561.467 252.081L346.16 334.831C349.049 338.173 351.249 341.937 352.763 345.891L566.02 263.927Z" fill="#C4230E"/>
<path d="M355.245 358.532L570.572 275.775L566.02 263.927L352.763 345.891C354.333 349.988 355.164 354.289 355.245 358.532" fill="#ED2A11"/>
<path d="M346.143 334.849L346.16 334.831L346.139 334.84L346.143 334.849Z" fill="#51395D"/>
<path d="M352.763 345.891L334.763 352.809C335.257 354.023 337.429 354.904 337.54 356.124C337.573 356.485 337.423 356.817 337.197 357.139L355.245 358.532C355.164 354.289 354.333 349.988 352.763 345.891Z" fill="#F9EAD1"/>
<path d="M346.143 334.849L333.679 347.911C334.048 347.997 334.369 348.144 334.583 348.427C335.323 349.416 334.275 351.551 334.748 352.781C334.748 352.781 334.759 352.799 334.763 352.809L352.763 345.891C351.249 341.937 349.049 338.173 346.16 334.831L346.143 334.849Z" fill="#FEE4AF"/>
<path d="M346.143 334.849L346.16 334.831L346.143 334.849Z" fill="#B49FC1"/>
<path d="M390.56 342.447C387.465 348.777 389.875 356.344 396.052 359.68L467.035 403.149C473.899 406.872 484.129 405.403 488.687 397.417C494.735 386.824 486.871 377.492 480.323 374.045L408.839 336.403C402.18 332.925 393.873 335.671 390.56 342.447Z" fill="#A5542D"/>
</svg>
