<svg width="154" height="126" viewBox="0 0 154 126" fill="none" xmlns="http://www.w3.org/2000/svg">
<path d="M150.282 118.71H3.76682C1.7135 118.71 0.0488281 116.634 0.0488281 114.074V4.85251C0.0488281 2.29194 1.7135 0.216019 3.76682 0.216019H150.282C152.335 0.216019 154 2.29194 154 4.85251V114.074C154 116.634 152.335 118.71 150.282 118.71Z" fill="#6C71B9"/>
<path d="M3.76636 0.215971L84.6071 2.64624L150.281 0.215971H3.76636Z" fill="#A6AEDF"/>
<path d="M10.7244 106.75L89.7675 109.196L140.625 106.75H10.7244Z" fill="#A6AEDF"/>
<path d="M50.2017 123.815L78.382 126L102.591 123.815H50.2017Z" fill="#A6AEDF"/>
<path d="M8.34985 118.71C14.0323 118.536 19.715 118.461 25.3972 118.334L42.4444 118.119C53.8093 117.977 65.1742 117.957 76.5386 117.938C87.9035 117.955 99.2684 117.976 110.633 118.116L127.68 118.331C133.363 118.459 139.045 118.535 144.728 118.71C139.045 118.885 133.363 118.96 127.68 119.089L110.633 119.304C99.2684 119.444 87.9035 119.465 76.5386 119.482C65.1742 119.463 53.8093 119.443 42.4444 119.301L25.3972 119.086C19.715 118.959 14.0323 118.884 8.34985 118.71Z" fill="#212F40"/>
<path d="M145.219 106.75H8.83C8.22283 106.75 7.73071 106.136 7.73071 105.379V10.8137C7.73071 10.0565 8.22283 9.44265 8.83 9.44265H145.219C145.826 9.44265 146.318 10.0565 146.318 10.8137V105.379C146.318 106.136 145.826 106.75 145.219 106.75Z" fill="#212F3F"/>
<path d="M7.73071 15.013V105.379C7.73071 106.136 8.22283 106.75 8.83 106.75H13.718V15.013H7.73071Z" fill="#36495F"/>
<path d="M30.2342 30.5956H20.0159V28.5213H30.2342V30.5956Z" fill="#B9CDE2"/>
<path d="M30.2342 70.5125H20.0159V68.4387H30.2342V70.5125Z" fill="#B9CDE2"/>
<path d="M48.7135 35.0304H23.5686V32.9566H48.7135V35.0304Z" fill="#B9CDE2"/>
<path d="M44.6641 39.4657H27.231V37.3914H44.6641V39.4657Z" fill="#B9CDE2"/>
<path d="M48.5199 43.901H23.375V41.8267H48.5199V43.901Z" fill="#B9CDE2"/>
<path d="M33.2406 48.3369H23.375V46.2621H33.2406V48.3369Z" fill="#B9CDE2"/>
<path d="M33.2406 66.0778H23.375V64.0035H33.2406V66.0778Z" fill="#B9CDE2"/>
<path d="M45.4291 52.7717H27.231V50.6974H45.4291V52.7717Z" fill="#B9CDE2"/>
<path d="M64.0652 57.207H27.231V55.1327H64.0652V57.207Z" fill="#B9CDE2"/>
<path d="M52.3759 61.6425H27.231V59.5682H52.3759V61.6425Z" fill="#B9CDE2"/>
<path d="M45.1608 74.9479H20.0159V72.8736H45.1608V74.9479Z" fill="#B9CDE2"/>
<path d="M45.1608 92.6892H20.0159V90.6149H45.1608V92.6892Z" fill="#B9CDE2"/>
<path d="M48.5199 79.2758H23.375V77.2015H48.5199V79.2758Z" fill="#B9CDE2"/>
<path d="M52.3759 83.8191H27.231V81.7443H52.3759V83.8191Z" fill="#B9CDE2"/>
<path d="M48.5199 88.2539H23.375V86.1796H48.5199V88.2539Z" fill="#B9CDE2"/>
<path d="M145.219 9.4426H8.83C8.22283 9.4426 7.73071 10.0564 7.73071 10.8136V15.0129H146.318V10.8136C146.318 10.0564 145.826 9.4426 145.219 9.4426Z" fill="#B7C6DD"/>
<path d="M79.3592 77C76.8095 77 74.5291 76.3763 72.518 75.129C70.5069 73.8387 68.9089 71.9677 67.7238 69.5161C66.5746 67.0645 66 64.0753 66 60.5484V43.7742C66 43.086 66.1975 42.5054 66.5925 42.0323C66.9876 41.5591 67.4724 41.3226 68.047 41.3226C68.6575 41.3226 69.1602 41.5591 69.5553 42.0323C69.9503 42.5054 70.1478 43.086 70.1478 43.7742V60.5484C70.1478 64.5054 71.0636 67.4516 72.8951 69.3871C74.7266 71.3226 77.025 72.2903 79.7902 72.2903C81.5499 72.2903 83.13 71.8817 84.5305 71.0645C85.967 70.2473 87.0982 69.129 87.9242 67.7097C88.7502 66.2903 89.1632 64.6774 89.1632 62.871V43.7742C89.1632 43.043 89.3427 42.4624 89.7019 42.0323C90.0969 41.5591 90.5997 41.3226 91.2102 41.3226C91.8207 41.3226 92.3234 41.5591 92.7185 42.0323C93.1135 42.4624 93.311 43.043 93.311 43.7742V74.0968C93.311 74.871 93.1135 75.4946 92.7185 75.9677C92.3234 76.3979 91.8207 76.6129 91.2102 76.6129C90.5997 76.6129 90.0969 76.3979 89.7019 75.9677C89.3427 75.4946 89.1632 74.871 89.1632 74.0968V71.9032C87.9781 73.4946 86.5416 74.7419 84.8538 75.6452C83.1659 76.5484 81.3344 77 79.3592 77Z" fill="#DDB8B8"/>
<path d="M116.138 76.9355C113.301 76.9355 110.769 76.1613 108.543 74.6129C106.352 73.0215 104.61 70.871 103.317 68.1613C102.06 65.4516 101.432 62.3979 101.432 59C101.432 55.5591 102.043 52.4839 103.264 49.7742C104.485 47.0645 106.154 44.9355 108.273 43.3871C110.392 41.7957 112.834 41 115.599 41C120.088 41 123.733 43.0645 126.534 47.1935C126.929 47.7097 127.073 48.2688 126.965 48.871C126.858 49.4301 126.552 49.9247 126.05 50.3548C125.655 50.6989 125.206 50.828 124.703 50.7419C124.236 50.6129 123.823 50.2903 123.464 49.7742C121.381 46.9355 118.76 45.5161 115.599 45.5161C113.588 45.5161 111.811 46.0968 110.266 47.2581C108.758 48.4194 107.573 50.0108 106.711 52.0323C105.885 54.0538 105.472 56.3763 105.472 59C105.472 61.5806 105.921 63.8817 106.819 65.9032C107.717 67.9247 108.974 69.5161 110.59 70.6774C112.206 71.8387 114.055 72.4194 116.138 72.4194C119.011 72.4194 121.327 71.4946 123.087 69.6452C123.518 69.2151 123.967 68.9785 124.434 68.9355C124.9 68.8925 125.331 69.0645 125.726 69.4516C126.157 69.9247 126.391 70.4624 126.427 71.0645C126.499 71.6667 126.337 72.1828 125.942 72.6129C123.32 75.4946 120.052 76.9355 116.138 76.9355Z" fill="#DDB8B8"/>
</svg>
