<svg width="21" height="27" viewBox="0 0 21 27" fill="none" xmlns="http://www.w3.org/2000/svg">
<path d="M5.58679 2.86001C6.23862 4.5589 5.70815 5.673 4.82682 6.56835L1.24886 6.69128C1.22491 6.66953 1.20027 6.64878 1.17564 6.62804C1.12733 6.58735 1.07907 6.5467 1.03618 6.49869C-0.554734 4.71764 -0.250763 2.61208 1.51723 1.03283C3.61641 -0.842256 6.00722 0.0550066 7.72182 1.97405C7.64472 1.98415 7.52312 1.99523 7.37673 2.00857C6.82582 2.05876 5.92362 2.14096 5.71906 2.32369C5.56547 2.46088 5.51227 2.66636 5.58679 2.86001Z" fill="#544B89"/>
<path d="M1.8034 19.1745C2.2997 20.8842 2.83498 22.4155 3.18067 22.9503C4.00513 24.1872 5.1169 25.1311 6.51598 25.7821C7.91506 26.4114 9.50151 26.7261 11.2753 26.7261C12.6494 26.7261 13.9236 26.4982 15.0978 26.0425C16.2721 25.5868 17.2714 24.9575 18.0959 24.1546V25.2613C18.0959 25.6519 18.2208 25.9666 18.4706 26.2053C18.7454 26.4223 19.0952 26.5308 19.5199 26.5308C19.9446 26.5308 20.2944 26.4223 20.5692 26.2053C20.8441 25.9666 20.9815 25.6519 20.9815 25.2613V9.96295C20.9815 9.59405 20.8441 9.3011 20.5692 9.08411C20.2944 8.84541 19.9446 8.72606 19.5199 8.72606C19.0952 8.72606 18.7454 8.84541 18.4706 9.08411C18.2208 9.3011 18.0959 9.59405 18.0959 9.96295V19.5977C18.0959 20.5091 17.8086 21.3228 17.2339 22.0389C16.6593 22.755 15.8723 23.3192 14.873 23.7315C13.8986 24.1438 12.7993 24.3499 11.5752 24.3499C9.65142 24.3499 8.05247 23.8617 6.77831 22.8852C5.56373 21.9544 5.1103 20.5602 5.07055 18.7026C5.0751 18.6727 5.07902 18.6427 5.08233 18.6127C5.28476 16.8228 5.4626 15.3853 5.60683 14.2195C6.14841 9.84191 6.21603 9.29538 5.33238 8.30612C5.04717 7.98683 4.69954 7.75011 4.32326 7.58592L1.72876 7.67511C1.52325 7.78326 1.32448 7.90927 1.14386 8.07061C-0.0784569 9.16244 -0.191929 10.6223 0.860616 15.4279C0.954901 15.8862 1.06786 16.3827 1.19332 16.8953C1.30678 17.382 1.42951 17.8974 1.56155 18.4436C1.62568 18.6906 1.70106 18.9398 1.8034 19.1745Z" fill="#544B89"/>
</svg>
