<svg id="Layer_5" enable-background="new 0 0 64 64" height="512" viewBox="0 0 64 64" width="512" xmlns="http://www.w3.org/2000/svg"><g><path d="m63 29.279-6.838-2.279h-9.701l.198-.384-5.247-5.246-2.412 1.084v-10.685l-4.571-9.36-.051-.091c-.516-.825-1.405-1.318-2.378-1.318s-1.862.493-2.378 1.318l-4.622 9.451v10.685l-2.411-1.084-5.247 5.246.197.384h-9.701l-6.838 2.279v20.108l6-2v10.613c0 2.757 2.243 5 5 5h40c2.757 0 5-2.243 5-5v-10.613l6 2zm-8-.279v16h-8.388l-1.252-2.19c.356-.702.659-1.439.905-2.204l2.735-.877v-7.459l-2.734-.876c-.249-.774-.557-1.52-.919-2.229l.085-.165zm-14.026-5.24 3.239 3.239-1.13 2.195.263.468c.484.867.872 1.807 1.152 2.796l.146.517 2.356.754v4.541l-2.356.755-.146.517c-.28.989-.668 1.929-1.152 2.796l-.277.494 1.239 2.168h-6.004c2.835-1.992 4.696-5.28 4.696-9 0-3.317-1.46-6.365-4-8.463v-2.89zm-11.974-9.142v29.857c-.711-.252-1.384-.583-2-.997v-29.86zm-4 27.026c-1.248-1.545-2-3.508-2-5.644 0-2.101.715-4.073 2-5.655zm6 3.297v-30.527l1-1 1 1v30.527c-.329.037-.662.059-1 .059s-.671-.022-1-.059zm8-14.596c1.285 1.581 2 3.554 2 5.655 0 2.137-.752 4.099-2 5.644zm-2 13.133c-.616.413-1.289.744-2 .997v-29.857l2-1zm-5.659-40.135c.301-.432 1.018-.432 1.318 0l4.008 8.205-2.469 1.235-2.198-2.197-2.197 2.197-2.469-1.235zm-11.839 29.115c.28-.989.668-1.929 1.152-2.796l.263-.468-1.13-2.195 3.239-3.239 1.974.887v2.89c-2.54 2.099-4 5.146-4 8.463 0 3.72 1.861 7.008 4.695 9h-5.956l1.186-2.181-.271-.481c-.484-.867-.872-1.807-1.152-2.796l-.146-.517-2.356-.754v-4.541l2.356-.755zm-.849-3.293c-.362.709-.67 1.455-.919 2.229l-2.734.877v7.459l2.734.876c.247.769.553 1.511.912 2.216l-1.184 2.178h-8.462v-16h9.568zm-15.653 17.448v-15.892l4-1.333v15.892zm49 14.387h-40c-1.654 0-3-1.346-3-3v-11h46v11c0 1.654-1.346 3-3 3zm9-14.387-4-1.333v-15.893l4 1.333z"/><path d="m11 49h2v2h-2z"/><path d="m13 53h-2v4c0 1.103.897 2 2 2h2v-2h-2z"/><path d="m41 5h2v2h-2z"/><path d="m45 5h2v2h-2z"/><path d="m49 5h2v2h-2z"/><path d="m13 5h2v2h-2z"/><path d="m21 5h2v2h-2z"/><path d="m17 5h2v2h-2z"/></g></svg>